<svg id="Ebene_1" data-name="Ebene 1" xmlns="http://www.w3.org/2000/svg" viewBox="0 0 714.28 248.7"><title>besonder-schrift</title><path d="M347,476.74a40.67,40.67,0,0,0,13.05-1.8q5.24-1.8,8.55-3,4.2-1.5,2.7,1.65a12,12,0,0,1-5.4,5.25,38.14,38.14,0,0,1-6.9,2.7,36.14,36.14,0,0,1-10.8,1.5,33.15,33.15,0,0,1-1.2,8.4,40.44,40.44,0,0,1-3.45,8.7,30,30,0,0,1-5.7,7.5,21.44,21.44,0,0,1-7.65,4.8,19.14,19.14,0,0,1-11.1.9,27.79,27.79,0,0,1-10.8-5,35.73,35.73,0,0,1-9-9.9,44.81,44.81,0,0,1-5.7-13.65,108.54,108.54,0,0,1-3-26.85,193.16,193.16,0,0,1,2.55-30.9,240.85,240.85,0,0,1,7.05-30.75,140.88,140.88,0,0,1,10.65-26.4q6.13-11.4,13.5-17.7t15.45-4.8q5.4,1.2,7.05,8.1t.15,17.55a180.35,180.35,0,0,1-5.25,23.85q-3.75,13.2-9.15,27t-11.4,27.15q-6,13.35-12,24.15a53.64,53.64,0,0,0,1.8,7.05,52.46,52.46,0,0,0,4.2,9.9,33.86,33.86,0,0,0,6.75,8.7,11.05,11.05,0,0,0,9.15,3.15,3.84,3.84,0,0,0,3.6-2.4,12.25,12.25,0,0,0,1.2-5.55,29.74,29.74,0,0,0-.9-6.9,19.9,19.9,0,0,0-2.7-6.45,24,24,0,0,1-4.95-1.65,5.2,5.2,0,0,1-2.85-2.55q-1.5-3,1.2-6.6a9.94,9.94,0,0,1,7.8-3.9h.9a14.71,14.71,0,0,1,6.3,2.1,20.45,20.45,0,0,1,5.4,4.8Zm-21-109.8q-6.3.3-10.5,10.05T309,401.29a250,250,0,0,0-2.7,31.5,245.93,245.93,0,0,0,1.05,31.65q3.6-7.2,7.8-17.4t7.95-21.15q3.75-11,6.45-21.45a134.23,134.23,0,0,0,3.6-18.9c.6-5.6.34-10.1-.75-13.5S329.15,366.94,326,366.94Z" transform="translate(-290.56 -337.44)"/><path d="M364.66,471.94a31.64,31.64,0,0,1,15-14.1,19,19,0,0,1,8.25-1.65,11.67,11.67,0,0,1,7,2.55A10.89,10.89,0,0,1,399,467a19.26,19.26,0,0,1-2.55,9.9,29.15,29.15,0,0,1-7.95,9,27.09,27.09,0,0,1-11.85,5.25q.9,2.4,1.8,4.35a11.69,11.69,0,0,0,2.4,3.45c2.4,3.4,5,5.45,7.8,6.15a11.86,11.86,0,0,0,8.25-.9,20.81,20.81,0,0,0,7.5-6.6,44.67,44.67,0,0,0,5.85-11.25c.79-2.2,2.1-3.15,3.9-2.85s2.2,1.85,1.2,4.65a50,50,0,0,1-9.6,16.8A35.57,35.57,0,0,1,392.26,515a22.74,22.74,0,0,1-14.55.9q-7.36-1.95-13-10.35a22.38,22.38,0,0,1-3.6-8.85,34.76,34.76,0,0,1-.45-9.6,55.09,55.09,0,0,1,1.5-8.7A23.06,23.06,0,0,1,364.66,471.94Zm14.4-6c-2.21,1-3.6,3.5-4.2,7.5a35.42,35.42,0,0,0,.6,12.9q5.69-2.7,8.1-6.6a14.35,14.35,0,0,0,2.4-7.5,7.51,7.51,0,0,0-1.95-5.55A4.24,4.24,0,0,0,379.06,465.94Z" transform="translate(-290.56 -337.44)"/><path d="M643.06,457.74a32.51,32.51,0,0,0-16.35-13.8,88.16,88.16,0,0,0-25.2-5.85,193.55,193.55,0,0,0-30.6-.3q-16.36,1.05-33,2.85t-32.25,3.6a248.3,248.3,0,0,1-28.2,1.8q-12.6,0-21.15-2.55t-10.95-9.15a23.29,23.29,0,0,1-1.06-12.18c1.74-8.27,7.88-12.89,9.7-14.16v.05a63.35,63.35,0,0,1,19.7-9.56,146.89,146.89,0,0,1,26-5.4,196.12,196.12,0,0,1,27.6-1.35,135.94,135.94,0,0,1,24.6,2.55q10.8,2.25,17.55,6.3c4.5,2.7,6.54,6,6.15,9.75q-.62,4.2-7.2,6.9t-20.55,2.85c-1.64,0-3.37,0-5.16,0a6.62,6.62,0,0,1-.14,1,37.33,37.33,0,0,1-2.35,7.26,150.75,150.75,0,0,0,16.35-.32q14.54-1.2,21.15-5.25a17.89,17.89,0,0,0,8.4-10.65c.79-3.2-.45-6.85-3.75-10.95s-8.76-7.8-16.35-11.1-17.46-5.75-29.55-7.35-26.55-1.5-43.35.3q-18.31,1.8-32.1,8.1a85.06,85.06,0,0,0-23.1,15l-8.1,9A49.19,49.19,0,0,0,422,430a35.72,35.72,0,0,0-1.65,14.7,30.11,30.11,0,0,0,4.5,13.05,29,29,0,0,0,10.65,9.9q8.39,4.8,24.15,3.3a308,308,0,0,0,35.25-5.7q19.49-4.2,40.8-9.45A353.27,353.27,0,0,1,576,448.14q19-2.4,34-.15t22.2,12.75q6.59,9.6,1.65,22.35t-17.1,26a183.68,183.68,0,0,1-29.1,25.2,201.52,201.52,0,0,1-34.5,19.8,122.23,122.23,0,0,1-33.45,9.9q-15.92,2.09-25.8-4.5a25.35,25.35,0,0,1-10.5-13.05,39.91,39.91,0,0,1-2.1-17.7,53.73,53.73,0,0,1,5.7-19.05,65.94,65.94,0,0,1,13.05-17.7,73.68,73.68,0,0,1,19.65-13.65,68,68,0,0,1,25.8-6.45,19.58,19.58,0,0,0,7.2-1.5c1.59-.8,2.4-1.6,2.4-2.4s-.71-1.45-2.1-1.95a18.74,18.74,0,0,0-6-.75,85.07,85.07,0,0,0-28.65,5.85,116.72,116.72,0,0,0-27.15,14.7,125.61,125.61,0,0,0-22.35,20.7,85.29,85.29,0,0,0-14.55,23.7,49.62,49.62,0,0,0-3.6,23.7q1.19,11.54,10.5,20.85,9,9,22.95,10.8a87.28,87.28,0,0,0,30.15-1.8A161.45,161.45,0,0,0,547.81,572a248.26,248.26,0,0,0,33.45-19,243.6,243.6,0,0,0,29.85-23.7,167.94,167.94,0,0,0,22.65-25.5q9-12.75,11.85-24.75T643.06,457.74Z" transform="translate(-290.56 -337.44)"/><path d="M540.2,428.27a74.21,74.21,0,0,1-28.49-8.62,16.12,16.12,0,0,1-4.75-3.86c-.91-1.24-1.12-2.27-.63-3.1s1.68-1.25,3.55-1.26a16.88,16.88,0,0,1,7.18,2.14c8.71,4.3,16.6,6.48,25.47,6.48L557,422" transform="translate(-290.56 -337.44)"/><path d="M543,420" transform="translate(-290.56 -337.44)"/><path d="M715.65,475.74a38.49,38.49,0,0,0,12.45-1.8q5.25-1.8,8.25-3,4.2-1.5,2.7,1.65a12,12,0,0,1-5.4,5.25,38.47,38.47,0,0,1-6.75,2.7,34.67,34.67,0,0,1-10.65,1.5,26,26,0,0,1-5.4,14.7,29.86,29.86,0,0,1-13.8,10.2,32.79,32.79,0,0,1-11.1,2.25,29.68,29.68,0,0,1-10.5-1.5,24,24,0,0,1-8.55-5.1,21.14,21.14,0,0,1-5.55-8.25,25,25,0,0,1-1.5-10.2,28.13,28.13,0,0,1,2.7-10.5,30.94,30.94,0,0,1,6.6-9.15,24.82,24.82,0,0,1,9.9-5.85,18.23,18.23,0,0,1,10.35,0q5.25,1.5,7.65,4.8a10,10,0,0,1,1.5,5.4,10.58,10.58,0,0,1,6-1.8h.6a11.57,11.57,0,0,1,5.7,1.5,9.9,9.9,0,0,1,4.2,5.1Zm-20.4,23.7q5.1-.6,8.4-5.7a19.37,19.37,0,0,0,3-11.7,16.52,16.52,0,0,1-7.95-1.35q-3.75-1.65-4.05-4.95a4.57,4.57,0,0,1,1.2-4.5q-.6-2.4-3.75-4.2a6.72,6.72,0,0,0-6.45-.3,12.55,12.55,0,0,0-6.45,6.9,18.09,18.09,0,0,0-1.05,11.1,18.33,18.33,0,0,0,6.15,11.4A13.25,13.25,0,0,0,695.25,499.44Z" transform="translate(-290.56 -337.44)"/><path d="M733.05,459.84a6,6,0,0,1,4.2-.9,15.48,15.48,0,0,1,4.65,1.35,11.65,11.65,0,0,1,3.75,2.7,4.82,4.82,0,0,1,1.5,3.15,34.59,34.59,0,0,1-1.65,9,40.3,40.3,0,0,0-1.35,12.9,53.61,53.61,0,0,1,5-8.85,44,44,0,0,1,7.2-8.25,28.62,28.62,0,0,1,8.7-5.4,13.13,13.13,0,0,1,9.15-.3q5.4,1.8,7.65,8.1a79.85,79.85,0,0,1,3.45,13.2q1.2,6.9,2.1,12.3t3.6,5.4a7.39,7.39,0,0,0,4.95-1.95,20.28,20.28,0,0,0,4.05-5,46.29,46.29,0,0,0,3.15-6.3q1.35-3.3,2.55-5.7,2.1-5.1,4.65-4.5t.45,6q-.9,2.7-2.85,7.65a67.69,67.69,0,0,1-4.8,9.75,33.53,33.53,0,0,1-7.05,8.4,16.09,16.09,0,0,1-9.9,3.9q-8.7.6-12.9-4.8a31.81,31.81,0,0,1-5.85-12.45,85.47,85.47,0,0,1-2.1-13.35q-.45-6.3-1.95-7.8a2.85,2.85,0,0,0-3.6-.45,14.37,14.37,0,0,0-4,3.15,22.89,22.89,0,0,0-3.45,5q-1.5,2.85-2.4,4.95a42.39,42.39,0,0,0-2.25,10.8,15.26,15.26,0,0,1-1.65,6.9q-1.8,3-7.05,1.95a13.31,13.31,0,0,1-8.55-5.85q-1.5-2.1-2-9a137.16,137.16,0,0,1-.15-14.4,94,94,0,0,1,1.5-13.8Q730.95,461,733.05,459.84Z" transform="translate(-290.56 -337.44)"/><path d="M810.75,475.44a27,27,0,0,1,7-6.9,28.65,28.65,0,0,1,8.55-3.9,19.87,19.87,0,0,1,8.7-.45,20.45,20.45,0,0,1,7.8,3.15,187.88,187.88,0,0,1-.45-27.45,251.65,251.65,0,0,1,3.15-28.95A218.45,218.45,0,0,1,852,383.19a140.11,140.11,0,0,1,9.3-23.55,56.28,56.28,0,0,1,11.85-16.2q6.58-6,14.4-6,9.29,0,11,11.25T896,378.39q-4.22,18.45-13.8,42a492.35,492.35,0,0,1-23.1,48.45,101.3,101.3,0,0,0,5.7,22.65q3.6,8.85,9.6,9.45,4.18.3,8.55-4.05a29.2,29.2,0,0,0,6.75-11.55q1.49-5.1,3.9-4c1.59.7,2.1,2.55,1.5,5.55a30.25,30.25,0,0,1-2.7,6.75,40.34,40.34,0,0,1-5.55,8,31.9,31.9,0,0,1-8.25,6.6,22.28,22.28,0,0,1-11.1,2.7,15.49,15.49,0,0,1-12.15-5.7,42.35,42.35,0,0,1-7.95-15c-1.61,2.4-3.6,5.15-6,8.25a40.58,40.58,0,0,1-8.4,8.1,27.72,27.72,0,0,1-10.2,4.65q-5.4,1.2-10.8-2.4-7.51-4.8-7.65-14.7A29.39,29.39,0,0,1,810.75,475.44Zm13.8,24.9q4.5,1.5,9.9-3.15t10.8-13.95l-1.2-6.6A19.75,19.75,0,0,0,839,473a10.11,10.11,0,0,0-8.7,1q-4.5,2.55-7.2,9.45c-1.61,4.6-2.25,8.4-1.95,11.4S822.54,499.74,824.55,500.34ZM875,354.54q-5.4,1.5-9.3,12a128.24,128.24,0,0,0-6.15,25.65,272,272,0,0,0-2.7,33,275.2,275.2,0,0,0,1.05,33.45q4.5-10.2,9-22.35t7.95-24q3.44-11.85,5.85-22.8a111.68,111.68,0,0,0,2.7-19.05q.28-8.1-1.65-12.6T875,354.54Z" transform="translate(-290.56 -337.44)"/><path d="M893.55,470.94a31.64,31.64,0,0,1,15-14.1,19,19,0,0,1,8.25-1.65,11.69,11.69,0,0,1,7.05,2.55,10.89,10.89,0,0,1,4,8.25,19.36,19.36,0,0,1-2.55,9.9,29.15,29.15,0,0,1-8,9,27.14,27.14,0,0,1-11.85,5.25q.9,2.4,1.8,4.35a11.69,11.69,0,0,0,2.4,3.45c2.4,3.4,5,5.45,7.8,6.15a11.86,11.86,0,0,0,8.25-.9,20.89,20.89,0,0,0,7.5-6.6,44.67,44.67,0,0,0,5.85-11.25c.79-2.2,2.1-3.15,3.9-2.85s2.19,1.85,1.2,4.65a50,50,0,0,1-9.6,16.8A35.57,35.57,0,0,1,921.15,514a22.74,22.74,0,0,1-14.55.9q-7.36-1.95-13.05-10.35a22.38,22.38,0,0,1-3.6-8.85,34.76,34.76,0,0,1-.45-9.6,55.09,55.09,0,0,1,1.5-8.7A22.76,22.76,0,0,1,893.55,470.94Zm14.4-6c-2.21,1-3.6,3.5-4.2,7.5a35.42,35.42,0,0,0,.6,12.9q5.68-2.7,8.1-6.6a14.44,14.44,0,0,0,2.4-7.5,7.55,7.55,0,0,0-2-5.55A4.24,4.24,0,0,0,908,464.94Z" transform="translate(-290.56 -337.44)"/><path d="M973,470.64a13.71,13.71,0,0,0-4.35,4.8,33.4,33.4,0,0,0-3.15,7.2,26.4,26.4,0,0,0-1.2,7.8,18.48,18.48,0,0,0,1.2,6.9,8.17,8.17,0,0,0,3.6,4.05,15.84,15.84,0,0,0,6.45,2.1,21.9,21.9,0,0,0,7.95-.6,16.79,16.79,0,0,0,7.8-4.65,30.15,30.15,0,0,0,8.1-12.9,3.28,3.28,0,0,1,1.5-2.25,2.48,2.48,0,0,1,2.1-.45,2.77,2.77,0,0,1,1.5,1.35,4.18,4.18,0,0,1,0,3.15,33.14,33.14,0,0,1-3,7.35,70.36,70.36,0,0,1-4.2,6.45,43,43,0,0,1-11.25,10.35,47.65,47.65,0,0,1-13.5,6.15,29.43,29.43,0,0,1-12.75.75,14,14,0,0,1-9.3-5.55,14.55,14.55,0,0,1-2.85-7.95,31,31,0,0,1,.9-10.35,47.1,47.1,0,0,1,4.35-10.95,43.19,43.19,0,0,1,7.5-10.05,30.94,30.94,0,0,1-6.6.45q-3-.15-5.4-.45-1.2,3.9-2.25,7.65t-1.65,5.55q-1.5,3.6-4,3.15t-1.35-4.35q.9-3,1.8-6.6t1.8-6.9q-5.68-2.4-7.35-6.6a15.67,15.67,0,0,1-1-8.1,14,14,0,0,1,2.7-6.3,15.94,15.94,0,0,1,4.8-4.2,14.28,14.28,0,0,1,5.25-1.8,5.5,5.5,0,0,1,4.35,1.2q3.3,3,2.7,8.1a52.42,52.42,0,0,1-2.7,11.1q.9.9,4.35,1.35t10.35-1.35q6.9-1.5,8.55.9T973,470.64Z" transform="translate(-290.56 -337.44)"/></svg>