<svg version="1.1" id="rJ1VtI0-X" xmlns="http://www.w3.org/2000/svg" xmlns:xlink="http://www.w3.org/1999/xlink" x="0px" y="0px" viewBox="0 0 142 44" enable-background="new 0 0 142 44" xml:space="preserve"><style>@-webkit-keyframes r1r1EFUAZQ_Animation{40%{opacity: 0;}45%{opacity: 1;}90%{opacity: 1;}95%{opacity: 0;}0%{opacity: 0;}100%{opacity: 0;}}@keyframes r1r1EFUAZQ_Animation{40%{opacity: 0;}45%{opacity: 1;}90%{opacity: 1;}95%{opacity: 0;}0%{opacity: 0;}100%{opacity: 0;}}@-webkit-keyframes HJLkEF80b7_Animation{35%{opacity: 1;}40%{opacity: 0;}95%{opacity: 0;}100%{opacity: 1;}0%{opacity: 1;}}@keyframes HJLkEF80b7_Animation{35%{opacity: 1;}40%{opacity: 0;}95%{opacity: 0;}100%{opacity: 1;}0%{opacity: 1;}}#rJ1VtI0-X *{-webkit-animation-duration: 10s;animation-duration: 10s;-webkit-animation-iteration-count: infinite;animation-iteration-count: infinite;-webkit-animation-timing-function: cubic-bezier(0, 0, 1, 1);animation-timing-function: cubic-bezier(0, 0, 1, 1);}#SkxyNKURWQ{fill: #522F1B;}#H1-1EKLC-Q{fill: #522F1B;}#ryGJNYU0ZX{fill: #522F1B;}#H1mk4KL0WX{fill: none;stroke: #7AB51D;stroke-width: 1.873;}#rkNk4tL0WX{fill: #7AB51D;}#r1r1EFUAZQ{fill: #522F1B;-webkit-animation-name: r1r1EFUAZQ_Animation;animation-name: r1r1EFUAZQ_Animation;-webkit-transform-origin: 50% 50%;transform-origin: 50% 50%;transform-box: fill-box;}#HJLkEF80b7{fill: #522F1B;-webkit-animation-name: HJLkEF80b7_Animation;animation-name: HJLkEF80b7_Animation;-webkit-transform-origin: 50% 50%;transform-origin: 50% 50%;transform-box: fill-box;opacity: 0;}</style>
<path d="M42.827,36.98h-3.148c0.115,0.521,0.557,0.836,1.191,0.836c0.44,0,0.758-0.131,1.043-0.4l0.643,0.695&#xA;&#9;c-0.387,0.439-0.967,0.673-1.718,0.673c-1.438,0-2.374-0.903-2.374-2.144c0-1.246,0.95-2.143,2.22-2.143&#xA;&#9;c1.223,0,2.166,0.82,2.166,2.158L42.827,36.98L42.827,36.98z M39.662,36.277h2.051c-0.085-0.524-0.48-0.866-1.021-0.866&#xA;&#9;C40.143,35.411,39.747,35.745,39.662,36.277z M43.508,33.309c0-0.379,0.303-0.674,0.752-0.674c0.447,0,0.749,0.278,0.749,0.649&#xA;&#9;c0,0.401-0.302,0.694-0.749,0.694C43.811,33.98,43.508,33.688,43.508,33.309z M43.655,34.562h1.207v4.16h-1.207V34.562z&#xA;&#9; M50.24,36.341v2.382h-1.208v-2.195c0-0.674-0.31-0.981-0.843-0.981c-0.58,0-0.998,0.354-0.998,1.121v2.058h-1.208v-4.162h1.153&#xA;&#9;v0.486c0.324-0.355,0.813-0.549,1.377-0.549C49.496,34.499,50.24,35.07,50.24,36.341z M52.654,34.652h1.066v0.929h-1.035v3.142&#xA;&#9;h-1.207v-3.142h-0.643v-0.929h0.643v-0.187c0-0.937,0.572-1.547,1.609-1.547c0.34,0,0.695,0.067,0.92,0.226l-0.317,0.873&#xA;&#9;c-0.132-0.093-0.302-0.146-0.487-0.146c-0.356,0-0.549,0.193-0.549,0.604V34.652z M57.931,36.35v2.373h-1.129v-0.518&#xA;&#9;c-0.225,0.379-0.658,0.579-1.27,0.579c-0.975,0-1.556-0.541-1.556-1.261c0-0.734,0.519-1.246,1.788-1.246h0.959&#xA;&#9;c0-0.52-0.31-0.819-0.959-0.819c-0.441,0-0.898,0.146-1.199,0.388l-0.433-0.845c0.456-0.324,1.128-0.502,1.795-0.502&#xA;&#9;C57.196,34.499,57.931,35.087,57.931,36.35z M56.724,37.407V36.98h-0.828c-0.563,0-0.742,0.209-0.742,0.488&#xA;&#9;c0,0.303,0.255,0.504,0.681,0.504C56.237,37.973,56.585,37.786,56.724,37.407z M58.759,36.643c0-1.254,0.967-2.144,2.321-2.144&#xA;&#9;c0.873,0,1.563,0.379,1.864,1.06l-0.936,0.504c-0.226-0.396-0.557-0.572-0.936-0.572c-0.612,0-1.091,0.427-1.091,1.152&#xA;&#9;c0,0.729,0.479,1.151,1.091,1.151c0.379,0,0.71-0.17,0.936-0.571l0.936,0.512c-0.301,0.666-0.991,1.051-1.864,1.051&#xA;&#9;C59.726,38.784,58.759,37.896,58.759,36.643z M67.865,36.341v2.382h-1.206v-2.195c0-0.674-0.311-0.981-0.844-0.981&#xA;&#9;c-0.58,0-0.998,0.354-0.998,1.121v2.058H63.61v-5.74h1.207v2.014c0.325-0.325,0.789-0.495,1.322-0.495&#xA;&#9;C67.122,34.499,67.865,35.07,67.865,36.341z M75.68,36.643c0,1.309-0.904,2.143-2.072,2.143c-0.558,0-1.006-0.178-1.308-0.541v0.479&#xA;&#9;h-1.153v-5.738h1.207v2.019c0.312-0.341,0.735-0.502,1.254-0.502C74.775,34.499,75.68,35.334,75.68,36.643z M74.458,36.643&#xA;&#9;c0-0.72-0.456-1.152-1.06-1.152c-0.604,0-1.062,0.435-1.062,1.152c0,0.721,0.456,1.151,1.062,1.151&#xA;&#9;C74.002,37.794,74.458,37.359,74.458,36.643z M80.54,36.98h-3.147c0.115,0.521,0.558,0.836,1.19,0.836&#xA;&#9;c0.438,0,0.758-0.131,1.044-0.4l0.643,0.695c-0.387,0.439-0.967,0.673-1.719,0.673c-1.438,0-2.375-0.903-2.375-2.144&#xA;&#9;c0-1.246,0.952-2.143,2.223-2.143c1.222,0,2.166,0.82,2.166,2.158L80.54,36.98L80.54,36.98z M77.376,36.277h2.051&#xA;&#9;c-0.086-0.524-0.479-0.866-1.022-0.866C77.855,35.411,77.461,35.745,77.376,36.277z M80.966,38.337l0.401-0.866&#xA;&#9;c0.373,0.239,0.938,0.401,1.447,0.401c0.557,0,0.766-0.147,0.766-0.379c0-0.683-2.514,0.016-2.514-1.647&#xA;&#9;c0-0.789,0.711-1.347,1.926-1.347c0.572,0,1.207,0.131,1.604,0.362l-0.404,0.859c-0.409-0.231-0.819-0.311-1.196-0.311&#xA;&#9;c-0.543,0-0.774,0.17-0.774,0.388c0,0.712,2.516,0.022,2.516,1.663c0,0.773-0.721,1.322-1.965,1.322&#xA;&#9;C82.064,38.784,81.352,38.591,80.966,38.337z M85.074,38.337l0.4-0.866c0.373,0.239,0.938,0.401,1.447,0.401&#xA;&#9;c0.559,0,0.768-0.147,0.768-0.379c0-0.683-2.515,0.016-2.515-1.647c0-0.789,0.71-1.347,1.925-1.347c0.573,0,1.207,0.131,1.604,0.362&#xA;&#9;l-0.402,0.859c-0.41-0.231-0.82-0.311-1.199-0.311c-0.541,0-0.772,0.169-0.772,0.387c0,0.712,2.515,0.021,2.515,1.663&#xA;&#9;c0,0.772-0.72,1.321-1.964,1.321C86.173,38.784,85.461,38.591,85.074,38.337z M93.639,36.98h-3.146&#xA;&#9;c0.114,0.521,0.557,0.836,1.188,0.836c0.442,0,0.758-0.131,1.045-0.4l0.644,0.695c-0.388,0.439-0.968,0.673-1.718,0.673&#xA;&#9;c-1.438,0-2.375-0.903-2.375-2.144c0-1.246,0.951-2.143,2.22-2.143c1.226,0,2.166,0.82,2.166,2.158L93.639,36.98L93.639,36.98z&#xA;&#9; M90.477,36.277h2.049c-0.086-0.524-0.479-0.866-1.021-0.866C90.953,35.411,90.561,35.745,90.477,36.277z M97.052,34.499v1.112&#xA;&#9;l-0.271-0.016c-0.666,0-1.105,0.363-1.105,1.159v1.966h-1.208v-4.16h1.151v0.549C95.914,34.708,96.41,34.499,97.052,34.499z&#xA;&#9; M99.591,38.337l0.401-0.866c0.371,0.239,0.938,0.401,1.447,0.401c0.557,0,0.766-0.147,0.766-0.379c0-0.683-2.516,0.016-2.516-1.647&#xA;&#9;c0-0.789,0.713-1.347,1.928-1.347c0.572,0,1.207,0.131,1.602,0.362l-0.4,0.859c-0.411-0.231-0.819-0.311-1.2-0.311&#xA;&#9;c-0.541,0-0.771,0.169-0.771,0.387c0,0.712,2.514,0.021,2.514,1.663c0,0.772-0.721,1.321-1.963,1.321&#xA;&#9;C100.689,38.784,99.979,38.591,99.591,38.337z M103.791,36.643c0-1.254,0.968-2.144,2.322-2.144c0.873,0,1.562,0.379,1.863,1.06&#xA;&#9;l-0.937,0.504c-0.226-0.396-0.56-0.572-0.938-0.572c-0.61,0-1.092,0.427-1.092,1.152c0,0.729,0.48,1.151,1.092,1.151&#xA;&#9;c0.379,0,0.713-0.17,0.938-0.571l0.937,0.512c-0.304,0.666-0.99,1.051-1.863,1.051C104.759,38.784,103.791,37.896,103.791,36.643z&#xA;&#9; M112.898,36.341v2.382h-1.205v-2.195c0-0.674-0.312-0.981-0.846-0.981c-0.58,0-0.998,0.354-0.998,1.121v2.058h-1.207v-5.74h1.207&#xA;&#9;v2.014c0.324-0.325,0.789-0.495,1.322-0.495C112.154,34.499,112.898,35.07,112.898,36.341z M121.023,36.341v2.382h-1.209v-2.195&#xA;&#9;c0-0.674-0.303-0.981-0.787-0.981c-0.541,0-0.922,0.349-0.922,1.091v2.088H116.9v-2.197c0-0.672-0.287-0.979-0.791-0.979&#xA;&#9;c-0.533,0-0.912,0.349-0.912,1.091v2.088h-1.207v-4.162h1.152v0.479c0.311-0.354,0.772-0.541,1.309-0.541&#xA;&#9;c0.58,0,1.074,0.225,1.367,0.682c0.334-0.426,0.875-0.682,1.502-0.682C120.311,34.499,121.023,35.07,121.023,36.341z M126.205,36.98&#xA;&#9;h-3.146c0.115,0.521,0.558,0.836,1.19,0.836c0.44,0,0.759-0.131,1.045-0.4l0.644,0.695c-0.389,0.439-0.969,0.673-1.719,0.673&#xA;&#9;c-1.439,0-2.375-0.903-2.375-2.144c0-1.246,0.952-2.143,2.221-2.143c1.224,0,2.166,0.82,2.166,2.158L126.205,36.98L126.205,36.98z&#xA;&#9; M123.043,36.277h2.05c-0.085-0.524-0.479-0.866-1.021-0.866C123.523,35.411,123.128,35.745,123.043,36.277z M126.727,36.643&#xA;&#9;c0-1.254,0.967-2.144,2.32-2.144c0.874,0,1.562,0.379,1.863,1.06l-0.936,0.504c-0.226-0.396-0.558-0.572-0.938-0.572&#xA;&#9;c-0.609,0-1.093,0.427-1.093,1.152c0,0.729,0.481,1.151,1.093,1.151c0.381,0,0.713-0.17,0.938-0.571l0.936,0.512&#xA;&#9;c-0.301,0.666-0.989,1.051-1.863,1.051C127.693,38.784,126.727,37.896,126.727,36.643z M133.363,37.091l-0.58,0.572v1.06h-1.205&#xA;&#9;v-5.738h1.205v3.25l1.765-1.672h1.438l-1.733,1.764l1.89,2.396h-1.463L133.363,37.091L133.363,37.091z M139.367,38.521&#xA;&#9;c-0.246,0.179-0.608,0.263-0.98,0.263c-0.982,0-1.557-0.502-1.557-1.491v-1.711h-0.641v-0.93h0.641v-1.012h1.209v1.014h1.035v0.929&#xA;&#9;h-1.035v1.694c0,0.354,0.191,0.549,0.518,0.549c0.18,0,0.355-0.053,0.487-0.153L139.367,38.521z M139.871,38.081&#xA;&#9;c0-0.396,0.311-0.688,0.742-0.688c0.436,0,0.744,0.295,0.744,0.688c0,0.387-0.311,0.703-0.744,0.703&#xA;&#9;C140.182,38.784,139.871,38.468,139.871,38.081z M139.895,33.309h1.439l-0.238,3.534h-0.96L139.895,33.309z" id="SkxyNKURWQ"/>
<path d="M8.408,25.127c0,1.336-1.128,2.114-3.242,2.114H0.849v-7.67h4.098c2.114,0,3.101,0.844,3.101,2.006&#xA;&#9;c0,0.712-0.361,1.304-1.062,1.653C7.883,23.561,8.408,24.218,8.408,25.127z M3.391,21.38v1.142h1.205&#xA;&#9;c0.581,0,0.844-0.197,0.844-0.57s-0.263-0.569-0.844-0.569L3.391,21.38z M5.801,24.831c0-0.396-0.284-0.604-0.854-0.604H3.391v1.205&#xA;&#9;h1.556C5.517,25.434,5.801,25.227,5.801,24.831z M9.315,19.571h2.586v7.67H9.315V19.571z M12.841,23.404&#xA;&#9;c0-2.32,1.83-4.009,4.328-4.009s4.327,1.688,4.327,4.009c0,2.324-1.829,4.013-4.327,4.013S12.841,25.729,12.841,23.404z&#xA;&#9; M18.889,23.404c0-1.191-0.767-1.915-1.72-1.915s-1.721,0.724-1.721,1.915c0,1.195,0.768,1.919,1.721,1.919&#xA;&#9;S18.889,24.602,18.889,23.404z M29.994,19.571v7.67h-2.585v-2.826H25.02v2.826h-2.586v-7.67h2.586v2.718h2.389v-2.718H29.994z&#xA;&#9; M30.933,23.404c0-2.32,1.83-4.009,4.328-4.009c2.498,0,4.327,1.688,4.327,4.009c0,2.324-1.829,4.013-4.327,4.013&#xA;&#9;C32.763,27.417,30.933,25.729,30.933,23.404z M36.981,23.404c0-1.191-0.767-1.915-1.72-1.915c-0.953,0-1.721,0.724-1.721,1.915&#xA;&#9;c0,1.195,0.768,1.919,1.721,1.919C36.214,25.323,36.981,24.602,36.981,23.404z M43.113,21.522v1.314h3.199v1.949h-3.199v2.455&#xA;&#9;h-2.586v-7.67h6.234v1.951L43.113,21.522L43.113,21.522L43.113,21.522z M57.241,25.291v1.95h-6.377v-7.67h6.234v1.951h-3.692v0.897&#xA;&#9;h3.243v1.862h-3.243v1.008L57.241,25.291z M58.236,19.571h3.78c2.563,0,4.327,1.457,4.327,3.833c0,2.38-1.764,3.837-4.327,3.837&#xA;&#9;h-3.78V19.571z M61.906,25.227c1.084,0,1.829-0.646,1.829-1.818c0-1.172-0.745-1.818-1.829-1.818h-1.085v3.639h1.085V25.227z&#xA;&#9; M67.281,19.571h2.586v7.67h-2.586V19.571z M78.674,25.127c0,1.336-1.128,2.114-3.242,2.114h-4.316v-7.67h4.098&#xA;&#9;c2.113,0,3.102,0.844,3.102,2.006c0,0.712-0.36,1.304-1.062,1.653C78.148,23.561,78.674,24.218,78.674,25.127z M73.656,21.38v1.142&#xA;&#9;h1.205c0.58,0,0.844-0.197,0.844-0.57s-0.264-0.569-0.844-0.569L73.656,21.38z M76.066,24.831c0-0.396-0.283-0.604-0.854-0.604&#xA;&#9;h-1.558v1.205h1.558C75.781,25.434,76.066,25.227,76.066,24.831z M79.58,19.571h2.586v7.67H79.58V19.571z M83.107,23.404&#xA;&#9;c0-2.354,1.808-4.009,4.271-4.009c1.501,0,2.686,0.548,3.438,1.534l-1.631,1.457c-0.449-0.569-0.985-0.896-1.678-0.896&#xA;&#9;c-1.072,0-1.797,0.744-1.797,1.915c0,1.175,0.725,1.919,1.797,1.919c0.689,0,1.229-0.328,1.678-0.897l1.631,1.457&#xA;&#9;c-0.756,0.985-1.938,1.534-3.438,1.534C84.914,27.417,83.107,25.762,83.107,23.404z M99.119,19.571v7.67h-2.584v-2.826h-2.389v2.826&#xA;&#9;h-2.586v-7.67h2.586v2.718h2.39v-2.718H99.119z M100.365,19.571h2.586v5.664h3.463v2.007h-6.049V19.571z" id="H1-1EKLC-Q"/>
<path d="M9.298,33.309l-1.77,5.414H6.182l-1.191-3.666l-1.229,3.666h-1.34l-1.779-5.414h1.3l1.223,3.807l1.276-3.807&#xA;&#9;h1.16l1.237,3.838L8.1,33.309H9.298z M13.656,36.98h-3.148c0.116,0.521,0.557,0.836,1.191,0.836c0.439,0,0.758-0.131,1.044-0.4&#xA;&#9;l0.643,0.695c-0.387,0.439-0.967,0.673-1.719,0.673c-1.438,0-2.375-0.903-2.375-2.144c0-1.246,0.952-2.143,2.222-2.143&#xA;&#9;c1.222,0,2.166,0.82,2.166,2.158L13.656,36.98z M10.492,36.277h2.051c-0.086-0.524-0.48-0.866-1.022-0.866&#xA;&#9;C10.973,35.411,10.578,35.745,10.492,36.277z M14.338,33.309c0-0.379,0.302-0.674,0.75-0.674c0.45,0,0.751,0.278,0.751,0.649&#xA;&#9;c0,0.401-0.301,0.694-0.751,0.694C14.64,33.98,14.338,33.688,14.338,33.309z M14.486,34.562h1.206v4.16h-1.206V34.562z&#xA;&#9; M16.815,32.982h1.206v5.74h-1.206V32.982z" id="ryGJNYU0ZX"/>
<path stroke-miterlimit="10" d="M0.635,29.6H141.35" id="H1mk4KL0WX"/>
<path d="M26.556,37.229c0,0.944-0.798,1.494-2.29,1.494h-3.049v-5.416h2.894c1.492,0,2.189,0.596,2.189,1.416&#xA;&#9;c0,0.502-0.256,0.92-0.751,1.168C26.184,36.124,26.556,36.587,26.556,37.229z M23.012,34.585v0.804h0.851&#xA;&#9;c0.41,0,0.596-0.14,0.596-0.4c0-0.264-0.186-0.401-0.596-0.401L23.012,34.585z M24.713,37.021c0-0.277-0.2-0.426-0.603-0.426h-1.098&#xA;&#9;v0.852h1.099C24.513,37.445,24.713,37.3,24.713,37.021z M27.198,33.309h1.825v5.414h-1.825V33.309z M29.691,36.016&#xA;&#9;c0-1.64,1.29-2.83,3.055-2.83c1.764,0,3.056,1.19,3.056,2.83c0,1.641-1.292,2.832-3.056,2.832&#xA;&#9;C30.981,38.848,29.691,37.654,29.691,36.016z M33.961,36.016c0-0.843-0.543-1.354-1.216-1.354c-0.674,0-1.215,0.512-1.215,1.354&#xA;&#9;c0,0.844,0.541,1.354,1.215,1.354C33.418,37.368,33.961,36.857,33.961,36.016z" id="rkNk4tL0WX"/>
<path d="M139.752,19.393l0.23,0.867c0,0-0.164-1-0.025-2.208c0.137-1.208-0.273-2.711-0.73-3.896&#xA;&#9;c-0.455-1.184-0.271-1.777-0.363-4.101c-0.092-2.324-0.956-3.053-1.821-3.797c-0.75-0.644-3.315-0.515-3.994-0.468l-0.166,0.012&#xA;&#9;c-0.305,0.091-5.741,0.577-6.139,0.577c-0.396,0-3.769-0.061-4.132-0.182c-0.094-0.031-0.461-0.024-0.987-0.007l-1.862-0.1&#xA;&#9;c-1.005-0.096-2.134-0.217-3.339-0.179l-1.2-0.064c-1.734-0.316-2.562,0.527-4.215,0.107c-1.236-0.314-2.025-0.557-2.396-0.677&#xA;&#9;c0.097-0.282-0.002-0.66-0.125-0.508c-0.062,0.078-0.241,0.131-0.454,0.169l-0.326-0.239c0.328-0.428,0.681-0.942,0.719-1.086&#xA;&#9;c0.068-0.25-0.168-0.738-0.364-0.866c-0.107-0.068-0.431-0.198-0.496-0.091c-0.103,0.159,0.271,0.479,0.246,0.707&#xA;&#9;c-0.021,0.228-0.752,0.547-1.011,0.674c-0.021,0.01-0.42-0.14-0.528-0.147c-0.486-0.031-0.881,0-0.881,0l-0.455,0.243h-0.25&#xA;&#9;c-0.183-0.106-0.394-0.253-0.679-0.498c-0.176-0.149,0.354-0.554,0.246-0.706c-0.071-0.103-0.392,0.023-0.498,0.091&#xA;&#9;c-0.196,0.126-0.435,0.615-0.364,0.865c0.043,0.154,0.442,0.735,0.791,1.178l-0.07,0.069c-0.105-0.063-0.229-0.127-0.359-0.18&#xA;&#9;c-0.455-0.183-0.578-0.122-0.852-0.395s-0.549-0.152-0.549,0c0,0.152-0.334,0.486,0,1.063c0.336,0.577,0.852,0.638,0.852,0.638&#xA;&#9;c0.029,0.243,0.092,0.729,0,1.215c-0.09,0.486-1.125,1.944-1.486,2.339c-0.363,0.395-0.184,0.82-0.15,1.003&#xA;&#9;c0.027,0.182,0.729,0.668,0.729,0.668s0.64,0.303,0.822,0.364c0.182,0.061,1.03-0.182,1.123-0.333&#xA;&#9;c0.09-0.152,0.547-0.061,0.76,0.029c0.213,0.091,0.304,0.213,0.697,0.091l0.698-0.273c0.119,0-0.094,0.031,0.24,0.122&#xA;&#9;c0.336,0.091,0.521,0,0.551,0.122c0.027,0.122,0.027,0.395,0.119,0.395c0.094,0,0.492,0.076,0.639,0.152&#xA;&#9;c0.623,0.328,0.974,0.82,1.308,2.491s1.187,3.28,1.521,3.706c0.215,0.274,0.735,1.129,2.129,1.328l-0.033,0.495&#xA;&#9;c-0.061,0.517-0.213,0.941-0.15,1.367c0.062,0.425,0.364,1.215,0.334,1.366c-0.027,0.152-0.184,2.158-1.095,3.189&#xA;&#9;c-0.905,1.027-0.709,0.777-0.907,1.072c0.021-0.021,2.01,0,2.01,0l0.299-0.92c0.16-0.035,0.433,0.363,0.605,0.271l0.182-1.308&#xA;&#9;l0.095-1.581c0,0-0.062-1.184,0-1.245c0.028-0.032,0.672-1.478,1.276-3.003l0.572-0.187l0.379-0.13&#xA;&#9;c0.117,0.352,0.219,1.245,0.234,1.491c0.049,0.616,0.115,1.094,0.229,1.322l1.051,1.57c0,0,0.557,1.666,0.158,2.281&#xA;&#9;c-0.623,0.967-0.717,1.436-0.717,1.436h1.979l0.06-0.729v-0.365c0,0,0.41-0.021,0.479-0.135c0.067-0.115-0.729-1.553-0.82-2.439&#xA;&#9;c-0.068-0.691-0.293-3.807-0.389-4.926c1.928-0.162,2.935,0.556,4.678,0.777c2.402,0.304,1.459,0.639,1.887,0.547&#xA;&#9;c0.424-0.092,4.467-1.884,4.738-1.975l0.007-0.002c0.259-0.087-0.216,0.006,0.267,0.306c0.279,0.174,0.605,0.348,0.83,0.527&#xA;&#9;c0.166,0.134,0.275,0.272,0.269,0.414c-0.031,0.336-0.521,1.227-0.062,1.773c0.256,0.209-0.086,1.555-0.086,1.555&#xA;&#9;s-0.691,2.121-1.699,2.986c-1.381,1.186-1.442,1.687-1.442,1.687h2.096c0,0,0.07-0.89,0.343-0.865&#xA;&#9;c0.272,0.021,0.342,0.296,0.409,0.093c0.068-0.205,2.464-5.083,3.076-5.401c0.416-0.217,0.192-0.76,0.058-1.197&#xA;&#9;c0.233-0.113,0.491-0.249,0.526-0.354l0.021-0.036c0.102,0.218,0.201,0.411,0.283,0.552c0.366,0.607,0.457,0.791,0.457,0.791&#xA;&#9;s0.559,1.193,0.647,1.406c0.092,0.212,0.213,3.373-0.576,3.98c-0.791,0.605-0.822,1.032-0.822,1.032h2.188&#xA;&#9;c0,0,0.273-0.455,0.244-0.668c-0.031-0.214-0.123-0.455-0.123-0.455h0.396c0,0,0.599-4.749,0.566-5.479&#xA;&#9;c-0.031-0.729,0.403,0.092,0.202-0.516c-0.202-0.608-0.537-1.125-0.812-1.944c-0.146-0.424-0.241-1.123-0.305-1.755&#xA;&#9;c0.12-0.181,0.209-0.326,0.241-0.419c0.193-0.532,0.754-4.198,0.795-5.242c0.125,0.43,0.169,0.839,0.13,1.188&#xA;&#9;c-0.119,1.139,0.354,2.46,0.487,3.372c0.138,0.912-0.184,1.458-0.184,1.458l0.594,2.142l0.092,1.185l0.318-0.455l0.043,0.293&#xA;&#9;l0.484,0.664L139.752,19.393L139.752,19.393z M105.287,8.032c-0.146,0.022-0.271-0.053-0.26-0.217&#xA;&#9;c0.021-0.292,0.225-0.412,0.492-0.44c0.119-0.013,0.266-0.05,0.291,0.129C105.752,7.814,105.576,7.988,105.287,8.032z" id="r1r1EFUAZQ"/>
<path d="M140.424,20.098c-0.051-0.209-0.229-0.316-0.393-0.436c-1.545-1.094-2.398-3.443-1.928-5.252&#xA;&#9;c0.109-0.439,0.189-0.889,0.279-1.332c0.182-0.92,0.112-1.84,0.043-2.773c0.16,0.293,0.276,0.592,0.387,0.896&#xA;&#9;c0.314,0.91-0.051,1.752-0.264,2.611c-0.189,0.779-0.188,1.551,0.143,2.295c0.346,0.793,1.031,1.191,1.844,1.088&#xA;&#9;c-0.23-0.34-0.344-0.717-0.426-1.107c-0.275-1.266-0.373-2.551-0.438-3.84c-0.054-1.018-0.33-1.963-0.875-2.828&#xA;&#9;c-1.092-1.744-2.877-2.516-4.668-3.213c-1.98-0.773-4.102-1.152-6.043-2.096c-1.744-0.845-3.629-1.364-5.511-1.861l-0.39-0.14&#xA;&#9;c0.174-0.47-0.223-0.202-0.354-0.263c-0.102-0.049-0.24,0.039-0.334-0.061c-0.006-0.123,0.211-0.141,0.131-0.32l-1.027,0.103&#xA;&#9;c0.232-0.356,0.232-0.368-0.127-0.384c-1.383-0.063-2.76-0.053-4.127,0.221c-2.121,0.422-4.024,1.213-5.41,2.979&#xA;&#9;c-0.449,0.57-0.975,1.08-1.449,1.629c-0.156,0.186-0.293,0.26-0.553,0.203c-0.994-0.217-1.992-0.146-2.971,0.1&#xA;&#9;c-1.195,0.297-2.213,0.865-2.838,2.059l0.678,0.033c-0.42,0.215-0.611,0.486-0.775,0.799c-0.182,0.346-0.053,0.428,0.339,0.346&#xA;&#9;c-0.454,0.494-0.575,1.033-0.464,1.582c0.135,0.631,0.104,1.26,0.115,1.893c0.015,0.693,0.158,1.369,0.383,2.025&#xA;&#9;c0.104,0.295,0.182,0.561,0.072,0.883c-0.146,0.449,0.064,0.797,0.486,0.965c0.307,0.123,0.432,0.338,0.535,0.625&#xA;&#9;c0.254,0.699,0.547,1.383,0.926,2.027c0.102,0.172,0.188,0.27,0.424,0.209c1.162-0.301,2.195-0.814,2.824-1.879&#xA;&#9;c0.273-0.465,0.596-0.568,1.07-0.52c0.406,0.043,0.756,0.137,1.051,0.463c0.225,0.25,0.543,0.418,0.822,0.617&#xA;&#9;c0.363,0.262,0.729,0.406,1.062-0.059c0.276,0.684,0.276,0.684,0.785,0.311c0.448,0.736,0.448,0.736,0.856,0.293&#xA;&#9;c0.317,0.156,0.306,0.828,0.879,0.455c0.129-0.086,0.183,0.145,0.226,0.246c1.063,2.377,1.356,4.869-0.291,7.458h0.623&#xA;&#9;c0.899,0,0.938-0.051,1.026-0.926c0.033-0.309-0.059-0.736,0.468-0.777c0.122-0.008,0.153-0.12,0.163-0.24&#xA;&#9;c0.091-1.078,0.521-2.07,0.77-3.111c0.026-0.119,0-0.356,0.229-0.262c0.283,0.114,0.675,0.221,0.787,0.446&#xA;&#9;c0.404,0.82,0.873,1.646,0.688,2.629c-0.147,0.793-0.454,1.517-0.959,2.241h0.746c0.912,0,0.979-0.068,0.979-0.994&#xA;&#9;c-0.002-0.286-0.035-0.588,0.406-0.613c0.229-0.018,0.159-0.25,0.161-0.398c0.009-0.531,0.003-1.064,0.003-1.602l0.213-0.078&#xA;&#9;l0.621,0.778c0.186-0.509,0.092-0.955,0.061-1.403l0.611,0.438c0.521-1.476,0.358-2.924-0.172-4.383h3.77&#xA;&#9;c0.438-0.002,0.634,0.182,0.584,0.637c-0.045,0.42-0.079,0.852,0.229,1.347c0.17-1.064,0.9-1.595,1.639-2.097&#xA;&#9;c0.975-0.664,1.799-1.461,2.432-2.461c0.199-0.314,0.42-0.633,0.785-0.812c0.408,0.77,0.912,1.457,1.434,2.131&#xA;&#9;c0.27,0.346,0.531,0.699,0.672,1.117c0.24,0.736,0.627,1.385,1.125,1.973c0.221,0.266,0.459,0.533,0.533,0.875&#xA;&#9;c0.393,1.83,0.387,3.582-1.039,5.041l-0.443,0.508c0.518,0,0.927-0.004,1.338,0.002c0.443,0.009,0.671-0.176,0.658-0.648&#xA;&#9;c-0.01-0.383,0.152-0.701,0.561-0.797c0.211-0.05,0.243-0.158,0.256-0.344c0.016-0.307,0.045-0.613,0.094-0.92&#xA;&#9;c0.207-1.303,0.426-2.602,0.816-3.859l0.143,0.028l0.121,0.107c0.867,1.006,1.521,2.125,1.748,3.451&#xA;&#9;c0.164,0.947-0.183,2.102-1.104,2.98c0.432,0,0.846-0.004,1.26,0.002c0.43,0.008,0.645-0.186,0.625-0.623&#xA;&#9;c-0.014-0.314,0.006-0.725,0.271-0.828c0.352-0.137,0.287-0.35,0.299-0.59C141.434,23.366,140.828,21.751,140.424,20.098&#xA;&#9;L140.424,20.098z M104.125,16.572c-0.104-0.006-0.178-0.082-0.154-0.172c0.078-0.279,0.332-0.174,0.572-0.285&#xA;&#9;C104.465,16.404,104.404,16.598,104.125,16.572z M105.584,12.833c-0.141,0.023-0.264-0.051-0.252-0.209&#xA;&#9;c0.021-0.281,0.219-0.398,0.477-0.426c0.117-0.014,0.258-0.047,0.281,0.125C106.035,12.622,105.863,12.792,105.584,12.833z&#xA;&#9; M108.227,11.285c-0.396,0.367-0.932,0.354-1.24-0.033c-0.291-0.367-0.189-0.701,0.324-1.033c0.338-0.213,0.4-0.541,0.385-0.896&#xA;&#9;c-0.018-0.396,0.08-0.746,0.492-1.16c-0.188,0.611,0.006,0.994,0.201,1.385C108.758,10.285,108.695,10.848,108.227,11.285z" id="HJLkEF80b7"/>
<script>(function(){var a=document.querySelector('#rJ1VtI0-X'),b=a.querySelectorAll('style'),c=function(d){b.forEach(function(f){var g=f.textContent;g&amp;&amp;(f.textContent=g.replace(/transform-box:[^;\r\n]*/gi,'transform-box: '+d))})};c('initial'),window.requestAnimationFrame(function(){return c('fill-box')})})();</script></svg>