<svg version="1" xmlns="http://www.w3.org/2000/svg" viewBox="0 0 200 86.402" width="200" height="86.402"><path d="M42.51 68.046c1.717 0 3.102 2.404 4.153 7.212.14 1 .237 2.026.288 3.077 0 3.116-.825 5.22-2.48 6.308-.653.244-1.16.365-1.52.365-1.357 0-2.26-1.09-2.71-3.27-.22-.833-.327-1.802-.327-2.904v-.308c0-2.988.513-6.174 1.54-9.56v-.19l-.078-.06c.14-.445.52-.67 1.135-.67zm-.886-2.346c.27 0 .43.224.48.673-.076.397-.28.596-.614.596-.333 0-.532-.22-.596-.656.153-.41.397-.615.73-.615zm.962 3.48c-1.013 2.95-1.52 6.066-1.52 9.348v.173c0 2.836.47 4.51 1.405 5.02l.483.137h.192c1.128 0 1.93-1.013 2.404-3.04.127-.512.19-1.108.19-1.788v-1.117c0-3.103-.807-5.866-2.422-8.29-.308-.293-.55-.44-.73-.44zm.73-3.48c.322.115.482.32.482.615 0 .282-.218.462-.654.54-.256 0-.468-.18-.635-.54 0-.384.267-.59.806-.615zm11.578.038c.218.013.385.205.5.577-.705 1.154-1.52 3.25-2.443 6.29-.357.858-.863 1.73-1.517 2.615 1.73 4.642 3.122 7.47 4.174 8.482.513.385.763.673.75.865-.103.36-.3.532-.596.52h-.037c-.526-.13-1.378-1.11-2.558-2.944a47.923 47.923 0 0 1-2.193-5.174l-.114-.02c-.167 2.897-.11 5.333.173 7.31-.154.344-.365.504-.635.48h-.173c-.5-.027-.672-2.924-.518-8.694-.346-4.27-.462-7.43-.346-9.482.026-.45.244-.66.654-.635.333.012.5.28.5.807-.115 1.987-.038 4.462.23 7.424h.04c.473-.45 1.09-1.807 1.845-4.076.897-2.923 1.654-4.372 2.27-4.347zm6.173 2.308c1.718 0 3.103 2.404 4.154 7.212.143 1 .24 2.026.29 3.077 0 3.116-.826 5.22-2.48 6.308-.654.244-1.16.365-1.52.365-1.36 0-2.262-1.09-2.71-3.27-.22-.833-.328-1.802-.328-2.904v-.308c0-2.988.514-6.174 1.54-9.56v-.19l-.077-.06c.14-.445.52-.67 1.134-.67zm.077 1.135c-1.013 2.95-1.52 6.067-1.52 9.35v.172c0 2.835.47 4.508 1.405 5.02l.48.136h.19c1.13 0 1.93-1.013 2.405-3.04.128-.512.192-1.108.192-1.788v-1.116c0-3.103-.808-5.866-2.423-8.29-.308-.293-.55-.44-.73-.44zm8.21 14.06c.295 0 .5.187.615.56 0 .268-.226.512-.675.73-.333 0-.532-.224-.596-.673.192-.41.41-.616.653-.616zm4.424-16.905c.397 0 .596.603.596 1.808.32 10.027.628 15.04.923 15.04l.54-.135 2.172.058.73-.173c.19 0 .377.186.557.558-.128.515-.654.77-1.577.77l-2.018-.037c-.154 0-.436.135-.846.404h-.288c-.397 0-.66-1.494-.79-4.48-.153-1.91-.358-6.38-.614-13.407.1-.27.306-.405.614-.405zm9.712 1.71c1.717 0 3.102 2.405 4.153 7.213.14 1 .237 2.026.288 3.077 0 3.116-.825 5.22-2.48 6.308-.653.244-1.16.365-1.52.365-1.357 0-2.26-1.09-2.71-3.27-.22-.833-.327-1.802-.327-2.904v-.308c0-2.988.513-6.174 1.54-9.56v-.19l-.078-.06c.14-.445.52-.67 1.135-.67zm.076 1.136c-1.013 2.95-1.52 6.067-1.52 9.35v.172c0 2.835.47 4.508 1.405 5.02l.483.136h.192c1.128 0 1.93-1.013 2.404-3.04.127-.512.19-1.108.19-1.788v-1.116c0-3.103-.807-5.866-2.422-8.29-.308-.293-.552-.44-.73-.44zm10-3.095c.36.14.54.346.54.615 0 .295-.365.54-1.096.73-1.257.91-1.885 3.13-1.885 6.656 0 4.244.75 7.277 2.25 9.097.346.282.603.423.77.423.897 0 1.448-1.34 1.653-4.02l.077-.846c-.038-.603-.11-.904-.212-.904-.45.18-1.128.55-2.04 1.116l-.364.058c-.22 0-.406-.186-.56-.558 0-.308.442-.654 1.327-1.04.757-.486 1.327-.73 1.712-.73.73 0 1.153.57 1.27 1.712v.115c0 3.28-.714 5.32-2.137 6.114-.385.026-.577.064-.577.115-1.86 0-3.2-2.22-4.02-6.656a26.167 26.167 0 0 1-.288-3.712v-.403c0-3.873.82-6.38 2.46-7.52.566-.245.937-.366 1.117-.366zm8.56.327h.057c1.013.038 1.52.18 1.52.423v.385a.768.768 0 0 1-.482.404l-.844-.058h-.423v.058c.18 10.296.462 15.444.846 15.444l2.057-.288c.282.128.423.308.423.54v.057c0 .41-.79.68-2.367.808-1.05.192-1.86.29-2.423.29-.282-.116-.423-.302-.423-.56 0-.435.48-.653 1.442-.653v-.077c-.323-2.09-.56-7.257-.714-15.502h-.077l-1.75.308c-.32-.14-.48-.357-.48-.652 0-.372.806-.635 2.42-.79 0-.065.406-.11 1.214-.135zm8.5.153c1.28 0 2.192.77 2.73 2.308.077.154.115.378.115.673 0 .32-.197.5-.594.54-.346 0-.564-.424-.654-1.27-.435-.73-.922-1.096-1.46-1.096h-.27c-.782 0-1.244.77-1.385 2.308v.058c0 1.846 1.173 4.635 3.52 8.366.73 1.423 1.096 2.616 1.096 3.577 0 1.306-.666 2.32-2 3.037l-.672.115c-1.18 0-2.307-.808-3.384-2.423a2.29 2.29 0 0 1-.308-1.155c0-.654.224-1.02.673-1.096h.174c.283.19.424.37.424.54l-.115.556v.038c0 .833.685 1.603 2.057 2.308l.365.077h.173c.667 0 1.154-.57 1.462-1.713v-.23c0-1.373-.89-3.392-2.673-6.06-1.282-2.525-1.923-4.506-1.923-5.942 0-1.616.623-2.744 1.867-3.385l.79-.135zm9.384 1.212c.255 0 .44.218.557.654 0 2.27-.186 3.406-.558 3.406l-.175.058c-.397 0-.596-.404-.596-1.212-.168-.935-.41-1.403-.73-1.403-1.118.91-1.675 2.73-1.675 5.46.27 4.257.622 6.783 1.058 7.578.526.923 1.11 1.385 1.75 1.385h.25c.923 0 1.673-.91 2.25-2.73.167-.155.32-.232.462-.232.32 0 .506.2.558.597-.103.872-.603 1.802-1.5 2.79-.757.486-1.39.73-1.904.73-1.72 0-2.848-1.334-3.386-4-.436-2.63-.654-4.623-.654-5.983v-.25c0-2.423.56-4.404 1.674-5.943.372-.37.8-.557 1.29-.557l.672.173c0-.268.218-.44.653-.518zm9.52-1.307c.37 0 .557.243.557.73v1.212c0 1.68.52 6.725 1.558 15.137v.306c0 .603-.2.904-.596.904-.36-.05-.54-.23-.54-.538V83.8c0-.758-.328-3.444-.98-8.06-1.77.103-2.656.244-2.656.423l.058.077v.038c.167 2.654.25 5.078.25 7.27v1.54c0 .59-.224.884-.673.884-.296 0-.456-.224-.48-.673v-1.444c0-2.564-.085-5.046-.25-7.443h-.117a.8.8 0 0 1-.73-.423v-.307c.217-.308.46-.468.73-.48 0-.975-.327-3.578-.98-7.81 0-.32.243-.506.73-.558.32 0 .564.93.73 2.79.168.82.386 2.557.655 5.21h.076l2.596-.25c-.41-3.294-.615-5.66-.615-7.096 0-.68.223-1.02.672-1.02zm5.768 16.77c.295 0 .5.187.615.56 0 .268-.224.512-.673.73-.333 0-.532-.224-.596-.673.192-.41.41-.616.654-.616zm7.346-16.675c1.282 0 2.193.77 2.73 2.308.078.154.116.378.116.673 0 .32-.2.5-.596.54-.346 0-.564-.424-.654-1.27-.436-.73-.923-1.096-1.462-1.096h-.27c-.78 0-1.243.77-1.384 2.308v.058c0 1.846 1.173 4.635 3.52 8.366.73 1.423 1.096 2.616 1.096 3.577 0 1.306-.667 2.32-2 3.037l-.673.115c-1.18 0-2.308-.808-3.385-2.423a2.29 2.29 0 0 1-.308-1.155c0-.654.224-1.02.673-1.096h.173c.282.19.423.37.423.54l-.115.556v.038c0 .833.686 1.603 2.058 2.308l.365.077h.175c.667 0 1.154-.57 1.462-1.713v-.23c0-1.373-.89-3.392-2.673-6.06-1.282-2.525-1.923-4.506-1.923-5.942 0-1.616.623-2.744 1.867-3.385l.788-.135zm10.482.02c.192 0 .378.186.558.558l-.058.288c1.116 7.375 1.898 12.99 2.346 16.85-.128.36-.327.54-.596.54-.45 0-.718-.963-.808-2.886l-.212-1.52-1.058.06c-.667 0-1.673-.084-3.02-.25-.95 3.243-1.596 4.865-1.943 4.865h-.038c-.41-.116-.615-.32-.615-.616 1.04-2.54 2.167-6.885 3.385-13.04.526-1.898 1.007-3.43 1.442-4.597a.88.88 0 0 1 .615-.25zm-2.54 12.482a9.67 9.67 0 0 0 2.232.25h1.04c.14 0 .262-.058.364-.173l-1.404-9.347h-.038c-.256.397-.628 1.795-1.116 4.193l-1.077 5.077zm12.77-13.194c.526 0 .79 1.41.79 4.23.076.565.114 2.04.114 4.425l-.058 3.5c.295 3.257.68 5.18 1.154 5.77.372.256.558.455.558.596-.077.308-.224.513-.442.615h-.23c-.642 0-1.168-.848-1.578-2.54-.077.025-.295.55-.654 1.576-.462.64-.93.962-1.404.962-1.628 0-2.596-2.162-2.904-6.483l-.98-11.386c.127-.28.307-.423.538-.423.45 0 .673.603.673 1.808l1.154 12.482c.41 1.898.917 2.847 1.52 2.847.704-.192 1.172-2.193 1.403-6-.218-3.373-.327-6.418-.327-9.137v-2.25c0-.332.224-.53.673-.595zm4.922 1.557c.167.027.372.193.615.5l.577-.057c1.55 0 2.667.898 3.347 2.693.167.564.25 1.077.25 1.54v.172l.038.058-.038.077v.23c0 1.142-.385 2.277-1.154 3.405 1.257.795 1.885 1.943 1.885 3.443v.425c0 1.603-.57 3.116-1.712 4.54-.5.486-1.026.73-1.577.73l-.887-.173h-.058l-.212.116h-.23c-.347 0-.572-.41-.674-1.23-.32-1.63-.48-3.463-.48-5.502V77.3l-.29-.673v-.038l.29-.54v-1.654c0-2.667-.098-4.82-.29-6.462.09-.334.29-.5.597-.5zm.674 1.636c.115 1.782.173 3.718.173 5.808v1.29h.5c1 0 1.744-.91 2.23-2.732l.06-.73v-.674c0-1.45-.572-2.417-1.713-2.904l-.73-.135h-.232l-.288.075zm.346 8.232h-.173v1.04c0 3.59.244 5.384.73 5.384.155.205.334.308.54.308h.25c.77 0 1.417-1.11 1.943-3.327l.058-1.096c0-1.462-.48-2.308-1.442-2.54h-.52l-1.386.23zm7.327-11.252c.32 0 .506.244.558.73h-.058l.058.193c.436 0 1.648-.137 3.635-.406.32.115.48.314.48.596 0 .41-.864.674-2.595.79l-1.693.23v.847c0 .603.244 3.045.73 7.328h2.463c.333 0 .54.186.615.558 0 .397-.3.596-.904.596h-2.173v.075l-.056 3.98c0 .95.096 1.642.288 2.078l3.81-.25c.41.05.614.23.614.54 0 .41-.45.614-1.346.614-2.308.128-3.462.25-3.462.365-.462 0-.782-.705-.962-2.116l-.096-1.462.038-4.366-.712-7.944v-.596c0-1.59.237-2.385.712-2.385h.06zm11.655-.038c1.153.103 1.845 1.154 2.076 3.154v.808c-.154 1.603-.962 3.212-2.423 4.828.282.603.865 2.54 1.75 5.808L191.3 84.3c-.168.345-.386.5-.655.46-.346-.012-.885-1.006-1.616-2.98-.5-.987-1.053-2.808-1.656-5.462-.154-.462-.276-.7-.365-.712l-1.29.673c.026 2.806.14 5.454.346 7.94-.026.206-.186.39-.48.56l-.193-.02c-.36-.026-.54-.423-.54-1.19-.345-7.016-.39-11.933-.134-14.754-.257-.23-.373-.462-.347-.692.013-.09.154-.263.423-.52.038-.525.263-.762.673-.71l.287.134c1.078-.747 1.918-1.086 2.52-1.022zm-2.405 2.365c-.14 2.808-.186 4.994-.135 6.56l.173.018c1.257-.59 2.302-1.973 3.135-4.152l.135-.827.02-.172c.114-1.167-.148-2.045-.79-2.635l-.308-.02c-.435-.038-1.18.372-2.23 1.23zm8.27-1.038c.525 0 .79 1.39.79 4.174l-.29 7.384.096 2c0 .282-.216.45-.652.5-.41 0-.615-.808-.615-2.423l.327-6.923v-.904c0-1.09-.11-2.18-.328-3.27 0-.283.223-.462.672-.54zm.114 15.983c.242 0 .383.224.42.673 0 .17-.16.33-.48.483-.397-.103-.596-.3-.596-.596 0-.334.218-.52.654-.558z" fill="#107983"/><path fill="#097984" d="M90.477 44.34a5.802 5.802 0 0 1-2.406.537c-2.05 0-3.81-1.005-4.567-2.44-.755 1.435-2.516 2.44-4.568 2.44-2.052 0-3.813-1.005-4.57-2.44-.754 1.435-2.515 2.44-4.567 2.44a5.675 5.675 0 0 1-3.033-.868c1.594 3.945 5.436 7.396 11.928 7.396 6.31 0 10.113-3.26 11.785-7.066z"/><path fill="#79962B" d="M0 49.878h2.73V33.55H0v-7.54h22.293c9.343 0 12.164 4.024 12.164 8.142 0 3.192-2.127 5.642-5.735 6.428v.092c4.163 1.018 6.89 4.163 6.89 7.91 0 4.256-2.913 8.834-14.013 8.834H0v-7.538zm17.76-11.24c3.053 0 4.21-.88 4.21-2.868 0-1.85-1.063-2.868-4.07-2.868h-3.006v5.736h2.867zm-.14 11.888c3.424 0 4.812-.834 4.812-3.054 0-1.895-1.064-3.145-4.256-3.145h-3.284v6.2h2.73zm21.458-.648h2.914V33.55h-2.914v-7.54H57.07v7.54h-2.914v16.33h2.914v7.538H39.078v-7.54zm54.358-5.218v-5.905l3.495-2.15C94.957 30.11 89.09 24.06 78.58 24.06c-13.238 0-19.132 9.59-19.132 17.584 0 7.99 5.894 17.582 19.132 17.582 10.455 0 16.312-5.985 18.32-12.438l-3.462-2.13zm-14.858 5.9c-6.712 0-9.7-4.863-9.7-8.915 0-4.053 2.988-8.915 9.7-8.915 6.71 0 9.7 4.863 9.7 8.915 0 4.05-2.99 8.914-9.7 8.914z"/><g fill="#097984"><path d="M133.903 52.607c-.542.497-1.216 1.027-2.02 1.592s-1.676 1.082-2.61 1.556c-.932.474-1.885.87-2.856 1.186-.97.316-1.893.474-2.766.474-.78 0-1.44-.11-1.974-.327-.534-.22-.967-.524-1.298-.916s-.568-.87-.71-1.434a7.587 7.587 0 0 1-.216-1.862c0-.948.11-2.05.328-3.308.218-1.257.486-2.56.802-3.907s.65-2.69 1.005-4.03.666-2.575.937-3.704c.105-.393.316-.728.632-1.007a4.03 4.03 0 0 1 1.073-.677c.4-.173.812-.3 1.24-.384a6.16 6.16 0 0 1 1.163-.124c.632 0 1.06.116 1.287.35.225.232.338.545.338.936 0 .33-.075.81-.226 1.434-.15.625-.34 1.332-.565 2.123-.226.79-.467 1.64-.723 2.553a91.8 91.8 0 0 0-.723 2.732c-.224.91-.412 1.8-.563 2.665-.15.866-.226 1.645-.226 2.337 0 .676.076 1.215.227 1.614.15.4.46.6.926.6.542 0 1.144-.19 1.807-.566a16.185 16.185 0 0 0 2.01-1.366 46.182 46.182 0 0 0 1.986-1.66c.647-.57 1.22-1.06 1.716-1.467v4.585zM123.81 29.393c0-.346.074-.738.225-1.174a3.64 3.64 0 0 1 .734-1.233c.337-.384.79-.708 1.353-.97s1.268-.396 2.11-.396c.528 0 1.025.06 1.49.18.468.12.874.307 1.22.555.346.248.62.576.824.982.203.406.305.888.305 1.445 0 .512-.083 1.01-.248 1.49-.166.482-.43.91-.79 1.287s-.817.68-1.366.914c-.55.233-1.21.35-1.977.35-1.324 0-2.302-.312-2.935-.937-.632-.625-.948-1.456-.948-2.495z"/><path d="M132.3 52.697c0-.994.06-2.142.18-3.444a96.066 96.066 0 0 1 1.063-7.87 61.66 61.66 0 0 1 .655-3.207c.166-.693.486-1.272.96-1.74s1.118-.7 1.93-.7c.814 0 1.38.25 1.695.746.316.497.474 1.16.474 1.987 0 .225-.023.53-.068.914s-.104.805-.17 1.265a210.49 210.49 0 0 1-.43 2.777c-.07.414-.125.775-.17 1.084a5.42 5.42 0 0 0-.068.62h.452c.09-.164.233-.43.43-.8s.42-.794.676-1.276c.257-.482.532-.99.825-1.524a79.79 79.79 0 0 0 .824-1.535 51.48 51.48 0 0 1 1.172-2.134c.482-.81 1.03-1.37 1.648-1.67a4.624 4.624 0 0 1 2.056-.45c.753 0 1.35.315 1.795.947.446.632.668 1.505.668 2.62 0 .165-.034.443-.102.835-.068.392-.154.86-.26 1.4-.105.543-.222 1.138-.35 1.785-.128.647-.245 1.31-.35 1.987a39.24 39.24 0 0 0-.26 2.01 18.003 18.003 0 0 0-.102 1.83c0 .932.117 1.7.35 2.302.233.602.598.903 1.095.903.225 0 .485-.07.78-.204s.61-.312.946-.53.685-.47 1.04-.757a42.9 42.9 0 0 0 1.05-.88 51.017 51.017 0 0 0 2.506-2.396l.385 5.058-1.13.858c-.616.467-1.245.933-1.885 1.4s-1.306.884-1.998 1.253-1.415.67-2.168.904a7.974 7.974 0 0 1-2.37.35c-.83 0-1.525-.598-2.09-1.795-.565-1.198-.847-2.948-.847-5.25 0-.904.06-1.88.18-2.925s.27-2.172.452-3.376h-.36l-5.917 11.743c-.3.617-.64 1.04-1.016 1.265-.377.226-.814.34-1.31.34-.618 0-1.115-.133-1.49-.396s-.667-.616-.87-1.06a5.05 5.05 0 0 1-.406-1.513 14.623 14.623 0 0 1-.102-1.75z"/><path d="M178.705 52.99a38.033 38.033 0 0 1-3.16 2.214c-.438.27-.897.538-1.38.802-.48.263-.955.497-1.422.7-.467.203-.922.37-1.366.497s-.854.192-1.23.192c-.212 0-.524-.045-.938-.135-.416-.09-.868-.275-1.357-.553-.49-.28-.98-.68-1.468-1.208s-.915-1.23-1.276-2.1a21.82 21.82 0 0 1-1.774 1.545 13.69 13.69 0 0 1-1.942 1.276c-.67.36-1.347.65-2.032.87a6.78 6.78 0 0 1-2.066.327c-.98 0-1.825-.21-2.54-.632a5.52 5.52 0 0 1-1.784-1.682 7.693 7.693 0 0 1-1.06-2.382 10.814 10.814 0 0 1-.35-2.754c0-.963.123-1.938.372-2.924.248-.986.61-1.942 1.084-2.868.473-.926 1.05-1.8 1.727-2.62a13.204 13.204 0 0 1 5.103-3.78 10.896 10.896 0 0 1 3.23-.79 43.834 43.834 0 0 1 1.716-11.087c.496-1.7 1.08-3.274 1.75-4.72.67-1.445 1.403-2.695 2.2-3.75.8-1.053 1.65-1.877 2.553-2.472s1.836-.892 2.8-.892c.707 0 1.31.184 1.806.553.497.37.9.858 1.208 1.468.31.61.53 1.317.667 2.123.135.805.203 1.637.203 2.495 0 .527-.023 1.07-.068 1.626a33.993 33.993 0 0 1-1.084 6.018 55.784 55.784 0 0 1-1.85 5.52 92.063 92.063 0 0 1-2.304 5.33c-.828 1.76-1.633 3.59-2.416 5.487-.075.21-.15.467-.226.768a17.768 17.768 0 0 0-.384 2.068 9.254 9.254 0 0 0 .01 2.315c.054.39.14.74.26 1.05.12.31.283.553.487.734.203.18.455.27.757.27.286 0 .598-.055.937-.168.34-.114.696-.268 1.073-.464.376-.196.756-.418 1.14-.666.384-.25.756-.502 1.118-.757a43.668 43.668 0 0 0 2.598-2.055l.675 5.213zM163.17 40.346a9.49 9.49 0 0 0-2.654 1.908c-.775.79-1.423 1.645-1.942 2.563s-.915 1.844-1.186 2.778c-.27.933-.406 1.776-.406 2.53 0 .3.034.6.102.902.068.3.192.572.373.813.18.24.437.436.768.586.33.15.76.226 1.287.226.27 0 .538-.068.802-.203s.516-.314.756-.533.47-.467.69-.745a8.48 8.48 0 0 0 .597-.87c.422-.692.805-1.474 1.152-2.348a7.745 7.745 0 0 1-.115-1.005c-.03-.46-.053-.97-.068-1.537l-.045-1.75c-.015-.602-.026-1.152-.034-1.648s-.02-.903-.035-1.22c-.016-.315-.03-.466-.046-.45zm10.613-16.372c.09-1.054.135-1.89.135-2.507 0-.813-.072-1.377-.215-1.694s-.35-.474-.62-.474c-.483 0-.92.304-1.31.914-.392.61-.74 1.39-1.04 2.337-.3.95-.565 1.996-.79 3.14s-.414 2.25-.565 3.32c-.15 1.07-.27 2.03-.36 2.89s-.152 1.468-.182 1.83c-.06.737-.11 1.45-.147 2.133a65.423 65.423 0 0 0-.104 3.353v1.197a111.147 111.147 0 0 0 2.37-5.85c.302-.827.607-1.696.916-2.607.31-.91.59-1.825.847-2.744.255-.917.477-1.82.665-2.71.19-.886.32-1.73.397-2.527z"/><path d="M191.306 40.503c.437.873.764 1.795.982 2.766.218.97.327 1.9.327 2.787 0 .888-.098 1.784-.294 2.687a13.83 13.83 0 0 1-.845 2.62c-.37.842-.82 1.632-1.355 2.37-.535.738-1.145 1.377-1.83 1.92s-1.434.97-2.247 1.286a7.106 7.106 0 0 1-2.597.475c-1.325 0-2.458-.29-3.4-.87a7.26 7.26 0 0 1-2.314-2.268 10.053 10.053 0 0 1-1.32-3.16 15.384 15.384 0 0 1-.42-3.57c0-1.655.25-3.202.746-4.64.497-1.438 1.208-2.687 2.134-3.75a9.88 9.88 0 0 1 3.4-2.506c1.34-.61 2.844-.913 4.515-.913 1.43 0 2.77.222 4.02.666 1.25.444 2.42 1.04 3.51 1.784 1.092.745 2.11 1.6 3.05 2.563a38.46 38.46 0 0 1 2.63 2.98l-.428 3.184c-.408-.542-.958-1.13-1.65-1.76a36.137 36.137 0 0 0-2.2-1.853 66.946 66.946 0 0 0-2.294-1.703 86.41 86.41 0 0 0-1.942-1.344l-.18.25zm-6.978 12.578c.512 0 1.01-.26 1.49-.777.482-.52.903-1.174 1.265-1.965s.65-1.664.87-2.62c.217-.955.326-1.87.326-2.743 0-.693-.055-1.336-.16-1.93a5.92 5.92 0 0 0-.474-1.548 2.85 2.85 0 0 0-.813-1.04c-.33-.255-.73-.383-1.197-.383-.617 0-1.204.263-1.76.79-.558.527-1.047 1.2-1.47 2.02s-.752 1.73-.993 2.722c-.24.994-.36 1.95-.36 2.868 0 .632.06 1.227.18 1.784s.31 1.043.565 1.457a2.93 2.93 0 0 0 1.015.994c.422.25.926.372 1.513.372z"/></g><path fill="#097984" d="M118.48 31.95c1.545-3.097 3.074-6.916 3.435-8.462.34-1.464.486-2.91.486-4.324 0-.632-.047-1.253-.145-1.863a5.637 5.637 0 0 0-.508-1.635 3.052 3.052 0 0 0-.994-1.163c-.422-.293-.956-.44-1.603-.44-.95 0-1.883.287-2.8.86s-1.8 1.358-2.643 2.36-1.648 2.174-2.416 3.522a40.873 40.873 0 0 0-2.132 4.347 51.156 51.156 0 0 0-1.76 4.855 67.942 67.942 0 0 0-1.345 5.036 50.917 50.917 0 0 0-.69 3.76c-2.412.967-7.077.154-7.077.154l-.167 5.388s4.586-1.127 6.84-1.76c-.03.58-.06 1.155-.06 1.697 0 1.745.15 3.413.44 5 .296 1.588.7 2.985 1.22 4.19.52 1.203 1.13 2.163 1.83 2.88.7.713 1.457 1.07 2.27 1.07a6.99 6.99 0 0 0 1.647-.214 14.29 14.29 0 0 0 1.807-.576c.617-.242 1.23-.517 1.84-.825.61-.31 1.2-.62 1.773-.937a46.57 46.57 0 0 0 3.974-2.574l-1.85-4.742a43.53 43.53 0 0 1-2.98 2.19c-.408.27-.83.538-1.267.802-.437.263-5.557 3.215-5.937-3.87-.28-5.208.925-5.268.925-5.268 1.97-1.17 6.123-5.908 7.89-9.455zm-7.484 2.942a42.86 42.86 0 0 1 2.09-8.547c.458-1.28.94-2.4 1.444-3.365s1.01-1.728 1.513-2.292c.504-.565.975-.847 1.41-.847.12 0 .193.156.216.465.02.31.032.68.032 1.118-.135 1.37-1.463 5.487-2.514 8.217-1.567 4.064-4.357 7.2-4.365 6.89.05-.544.095-1.085.17-1.638zM64.613 24.058V14.93S64.32-4.063 87.876.796c0 0-2.503 14.43-15.165 13.692-2.796-.147-6.623.736-6.623 9.423l-1.473.15z"/><path fill="#79962B" d="M53.9 20.094C41.236 20.83 38.733 6.402 38.733 6.402c23.557-4.86 23.56 16.048 23.56 16.048s-2.504-2.503-8.394-2.356z"/></svg>