<svg width="480px" height="186px" xmlns="http://www.w3.org/2000/svg" viewBox="0 0 415.08 123.64"><defs><style>.cls-1{fill:#a5e600;}.cls-2{fill:#78c323;}.cls-3{fill:#3c7d32;}</style></defs><g id="Ebene_2" data-name="Ebene 2"><g id="Layer_1" data-name="Layer 1"><path class="cls-1" d="M141.27,20.21h8.83v6.28A14.9,14.9,0,0,1,163.56,19c6.51,0,10.85,2.77,12.87,8.15a17.08,17.08,0,0,1,15-8.15c9.5,0,14.29,5.91,14.29,17.28V59.11H197V36.66c0-6.2-3.07-10.09-8.45-10.09C182.17,26.57,178,32,178,39.66V59.11h-8.9V36.66c0-6.2-3-10.09-8.38-10.09-6.44,0-10.55,5.38-10.55,13.09V59.11h-8.83Z"/><path class="cls-1" d="M213.84,8.74A6,6,0,1,1,220,14.65h-.09a5.84,5.84,0,0,1-6-5.68h0Zm1.64,11.45h8.76v38.9h-8.76Z"/><path class="cls-1" d="M234.41,20.21h8.83v6.28A14.9,14.9,0,0,1,256.7,19c9.58,0,14.37,5.91,14.37,17.28V59.11h-8.91V36.66c0-6.2-3-10.09-8.37-10.09-6.44,0-10.55,5.38-10.55,13.09V59.11h-8.83Z"/><path class="cls-1" d="M279.3,39.51c0-12,7.1-20.5,17.13-20.5a14.54,14.54,0,0,1,12.94,7V0h8.83v59.1h-8.83V53.35a14.24,14.24,0,0,1-12.94,7C286.4,60.31,279.3,51.74,279.3,39.51Zm30.3.07c0-7.63-4.49-13-10.78-13s-10.77,5.38-10.77,13,4.41,13.16,10.77,13.16S309.6,47.29,309.6,39.58Z"/><path class="cls-1" d="M333.68,28.06h-9.2V20.21h9.2V15.94C333.53,5.24,338.62-.26,349,0l4,.07V7.74h-2.92c-5.46,0-7.7,2-7.7,8.16v4.34h11v7.85h-11v31h-8.68Z"/><path class="cls-1" d="M396,59.11h-8.76V52.82a15,15,0,0,1-13.54,7.49c-9.5,0-14.29-5.91-14.29-17.29V20.21h8.83V42.65c0,6.21,3.07,10.1,8.46,10.1,6.35,0,10.54-5.39,10.54-13.09V20.21H396Z"/><path class="cls-1" d="M406.25,0h8.83v59.1h-8.83Z"/><path class="cls-2" d="M141.27,20.21h8.83v6.28A14.9,14.9,0,0,1,163.56,19c6.51,0,10.85,2.77,12.87,8.15a17.08,17.08,0,0,1,15-8.15c9.5,0,14.29,5.91,14.29,17.28V59.11H197V36.66c0-6.2-3.07-10.09-8.45-10.09C182.17,26.57,178,32,178,39.66V59.11h-8.9V36.66c0-6.2-3-10.09-8.38-10.09-6.44,0-10.55,5.38-10.55,13.09V59.11h-8.83Z"/><path class="cls-2" d="M213.84,8.74A6,6,0,1,1,220,14.65h-.09a5.84,5.84,0,0,1-6-5.68h0Zm1.64,11.45h8.76v38.9h-8.76Z"/><path class="cls-2" d="M234.41,20.21h8.83v6.28A14.9,14.9,0,0,1,256.7,19c9.58,0,14.37,5.91,14.37,17.28V59.11h-8.91V36.66c0-6.2-3-10.09-8.37-10.09-6.44,0-10.55,5.38-10.55,13.09V59.11h-8.83Z"/><path class="cls-2" d="M279.3,39.51c0-12,7.1-20.5,17.13-20.5a14.54,14.54,0,0,1,12.94,7V0h8.83v59.1h-8.83V53.35a14.24,14.24,0,0,1-12.94,7C286.4,60.31,279.3,51.74,279.3,39.51Zm30.3.07c0-7.63-4.49-13-10.78-13s-10.77,5.38-10.77,13,4.41,13.16,10.77,13.16S309.6,47.29,309.6,39.58Z"/><path class="cls-2" d="M333.68,28.06h-9.2V20.21h9.2V15.94C333.53,5.24,338.62-.26,349,0l4,.07V7.74h-2.92c-5.46,0-7.7,2-7.7,8.16v4.34h11v7.85h-11v31h-8.68Z"/><path class="cls-2" d="M396,59.11h-8.76V52.82a15,15,0,0,1-13.54,7.49c-9.5,0-14.29-5.91-14.29-17.29V20.21h8.83V42.65c0,6.21,3.07,10.1,8.46,10.1,6.35,0,10.54-5.39,10.54-13.09V20.21H396Z"/><path class="cls-2" d="M406.25,0h8.83v59.1h-8.83Z"/><path class="cls-1" d="M141.27,83.52h8.83v6.29a14.9,14.9,0,0,1,13.46-7.48c6.51,0,10.85,2.76,12.87,8.15a17.08,17.08,0,0,1,15-8.15c9.5,0,14.29,5.91,14.29,17.28v22.82H197V100c0-6.21-3.07-10.1-8.45-10.1-6.36,0-10.55,5.39-10.55,13.1v19.45h-8.9V100c0-6.21-3-10.1-8.38-10.1-6.44,0-10.55,5.39-10.55,13.1v19.45h-8.83Z"/><path class="cls-1" d="M212.86,72.08A6,6,0,1,1,219,78h-.09a5.86,5.86,0,0,1-6-5.7h0Zm1.65,11.44h8.75v38.91h-8.75Z"/><path class="cls-1" d="M231,110.23h8.53c.22,4.42,4,7,9.72,7,5.09,0,8.08-2.39,8.08-5.46,0-9.28-25.21-.75-25.21-17,0-7.41,6.51-12.42,17.21-12.42C259,82.35,265.39,87.58,266,96h-8.45c-.23-4.49-3.52-7.18-8.91-7.18-4.93,0-7.78,2.32-7.78,5.61,0,8.83,25.22.45,25.22,17.13,0,7.41-6.51,12.12-17.14,12.12C238,123.62,231.19,118.54,231,110.23Z"/><path class="cls-1" d="M271.59,110.23h8.53c.22,4.42,4,7,9.73,7,5.08,0,8.08-2.39,8.08-5.46,0-9.28-25.22-.75-25.22-17,0-7.41,6.51-12.42,17.21-12.42,9.73,0,16.08,5.23,16.68,13.61h-8.45c-.22-4.49-3.52-7.18-8.9-7.18-4.94,0-7.78,2.32-7.78,5.61,0,8.83,25.21.45,25.21,17.13,0,7.41-6.51,12.12-17.13,12.12C278.62,123.62,271.82,118.54,271.59,110.23Z"/><path class="cls-1" d="M312.81,72.08A6,6,0,1,1,318.9,78h-.09a5.86,5.86,0,0,1-6-5.7h0Zm1.65,11.44h8.75v38.91h-8.75Z"/><path class="cls-1" d="M330.92,102.9c0-12,8.38-20.57,20.12-20.57s20.13,8.53,20.13,20.57-8.38,20.72-20.13,20.72S330.92,115,330.92,102.9Zm31.42,0c0-7.63-4.71-13-11.3-13s-11.22,5.39-11.22,13,4.64,13.17,11.22,13.17S362.34,110.61,362.34,102.9Z"/><path class="cls-1" d="M378.2,83.52H387v6.29a14.9,14.9,0,0,1,13.46-7.48c9.58,0,14.37,5.91,14.37,17.28v22.82H406V100c0-6.21-3-10.1-8.37-10.1-6.44,0-10.55,5.39-10.55,13.1v19.45h-8.83Z"/><path class="cls-2" d="M141.27,83.52h8.83v6.29a14.9,14.9,0,0,1,13.46-7.48c6.51,0,10.85,2.76,12.87,8.15a17.08,17.08,0,0,1,15-8.15c9.5,0,14.29,5.91,14.29,17.28v22.82H197V100c0-6.21-3.07-10.1-8.45-10.1-6.36,0-10.55,5.39-10.55,13.1v19.45h-8.9V100c0-6.21-3-10.1-8.38-10.1-6.44,0-10.55,5.39-10.55,13.1v19.45h-8.83Z"/><path class="cls-2" d="M212.86,72.08A6,6,0,1,1,219,78h-.09a5.86,5.86,0,0,1-6-5.7h0Zm1.65,11.44h8.75v38.91h-8.75Z"/><path class="cls-2" d="M231,110.23h8.53c.22,4.42,4,7,9.72,7,5.09,0,8.08-2.39,8.08-5.46,0-9.28-25.21-.75-25.21-17,0-7.41,6.51-12.42,17.21-12.42C259,82.35,265.39,87.58,266,96h-8.45c-.23-4.49-3.52-7.18-8.91-7.18-4.93,0-7.78,2.32-7.78,5.61,0,8.83,25.22.45,25.22,17.13,0,7.41-6.51,12.12-17.14,12.12C238,123.62,231.19,118.54,231,110.23Z"/><path class="cls-2" d="M271.59,110.23h8.53c.22,4.42,4,7,9.73,7,5.08,0,8.08-2.39,8.08-5.46,0-9.28-25.22-.75-25.22-17,0-7.41,6.51-12.42,17.21-12.42,9.73,0,16.08,5.23,16.68,13.61h-8.45c-.22-4.49-3.52-7.18-8.9-7.18-4.94,0-7.78,2.32-7.78,5.61,0,8.83,25.21.45,25.21,17.13,0,7.41-6.51,12.12-17.13,12.12C278.62,123.62,271.82,118.54,271.59,110.23Z"/><path class="cls-2" d="M312.81,72.08A6,6,0,1,1,318.9,78h-.09a5.86,5.86,0,0,1-6-5.7h0Zm1.65,11.44h8.75v38.91h-8.75Z"/><path class="cls-2" d="M330.92,102.9c0-12,8.38-20.57,20.12-20.57s20.13,8.53,20.13,20.57-8.38,20.72-20.13,20.72S330.92,115,330.92,102.9Zm31.42,0c0-7.63-4.71-13-11.3-13s-11.22,5.39-11.22,13,4.64,13.17,11.22,13.17S362.34,110.61,362.34,102.9Z"/><path class="cls-2" d="M378.2,83.52H387v6.29a14.9,14.9,0,0,1,13.46-7.48c9.58,0,14.37,5.91,14.37,17.28v22.82H406V100c0-6.21-3-10.1-8.37-10.1-6.44,0-10.55,5.39-10.55,13.1v19.45h-8.83Z"/><path class="cls-1" d="M52.41,123.07A52.38,52.38,0,0,0,102.8,56.32,38.66,38.66,0,0,0,53.11,69,38.65,38.65,0,0,0,1.76,57.23a52.41,52.41,0,0,0,50.65,65.84Z"/><path class="cls-2" d="M28,33.74a33.76,33.76,0,0,0-16.78,4.51,52.16,52.16,0,0,0-9.47,19A38.66,38.66,0,0,1,53.11,69a38.84,38.84,0,0,1,14.1-12.54C58.78,42.81,44.07,33.74,28,33.74Z"/><path class="cls-3" d="M67.21,56.44a38.57,38.57,0,0,1,35.59-.12A52.39,52.39,0,0,0,11.26,38.26,33.77,33.77,0,0,1,28,33.74C44.07,33.74,58.78,42.81,67.21,56.44Z"/></g></g></svg>