<svg width="208" height="60" viewBox="0 0 208 60" xmlns="http://www.w3.org/2000/svg"><g fill="none" fill-rule="evenodd"><path d="M207.591 28.104c-.077-.085-.237-.177-.336-.16-.084.015-2.036.31-3.847.268-1.812-.04-3.56-1.304-4.33-1.53-.77-.226-1.612-.284-2.098.092-.487.377-1.695 2.087-2.454 2.814-2.208 2.557-10.628 6.489-10.843 5.221-.065-.278.253-.88.492-.924 1.788-.212 3.85-1.096 5.454-2.005 2.444-1.445 3.14-3.905 3.104-4.46-.074-.785-.374-1.53-.94-1.972-.917-.617-3.724-1.066-5.977.86-2.17 1.578-4.042 5.261-4.067 5.246-.267-.161-.421-.163-.587-.349.169-.647.671-1.2.559-1.932-.113-.733-1.152-2.08-3.485-1.696-.366.16-2.034.737-2.752 1.21.08-.152.315-1.043-.224-1.308-.489-.24-1.265.082-2.1.669-.835.587-8.225 6.693-8.39 6.765-.035.015-.206.15-.328.007-.39-.35 1.43-2.662 1.794-3.144.377-.498 1.692-2.066 1.09-3.251-.245-.28-.708-.31-1.284-.098-1.401.519-7.038 4.663-7.6 5.017-.019-.086 2.51-3.496 2.963-4.066.456-.577.665-1.55-.047-1.837-.441-.178-.711-.029-1.045.158-.742.416-7.924 5.736-8.155 5.867.062-.125 3.218-5.054 3.96-6.013.35-.453.504-1.18.143-1.693-.29-.41-1.4-.361-1.776-.059-.81.654-9.986 9.746-10.729 9.595-.942-.256 1.886-4.01 2.415-4.754.582-.82 1.193-1.57 1.317-1.826.125-.256-.068-.969-.336-1.33-.57-.414-.974-.283-1.341.174-.367.457-.648.937-.954 1.315-.652.804-2.772 3.366-4.057 4.28-.434.329-3.706 2.94-4.294 2.352-.403-.75-.23-2.384 1.054-4.018 1.045-1.328 4.763-5.444 6.158-5.182.543.209.697 1.154.367 1.779.11.261.375.286.455.204.296-.096.512-.415.718-.748.59-.957.674-2.445-.982-2.738-.307-.042-.47-.163-1.57-.098-1.028.13-3.55 2.21-4.908 3.451-.77.85-2.54 1.993-4.191 4.868-.336.272-3.583 2.34-4.783 2.83-1.2.488-2.77 1.222-4.766 1.22-1.997-.001-2.35-1.11-1.572-3.457 1.113-2.49 4.207-5.441 5.158-6.483 1.49-1.664 9.826-8.169 13.474-9.556.669-.257 2.265-.632 3.634.143.051.003.99.594 1.222 1.344 1.18 0 2.854-1.109 2.444-1.874-.41-.765-.885-1.875-3.107-2.155-2.223-.28-4.074-.168-6.404.68-4.057 1.475-13.212 7.9-17.222 14.3-2.637 4.208-2.148 6.182-.982 7.516.556.636 1.96 1.241 3.25 1.124 5.947-.662 9.294-3.868 9.294-3.868s-.144 1.145.11 1.666c.48.85 1.498 1.359 2.489 1.359 1.688-.085 5.162-3.328 5.542-3.678.027.129-.681 1.23-.698 2.71 0 1.144 1.104.952 1.579 1.014.917-.131 1.59-.6 1.981-.948.965-.855 7.32-6.355 7.75-6.844-.026.256-3.793 5.542-4.133 7.149-.03.512.67.619 1.175.635.54.018.951.09 1.368-.423.434-.534 5.85-4.95 6.393-5.323-.763 1.22-2.104 2.82-2.107 3.83-.003 1.01.435 1.136.844 1.156.854.043 6.91-4.58 7.753-5.15-.307.61-1.773 3.48-1.758 4.043.017.637.988.95 1.075.965.803.126 1.116.015 2.044-.444.68-.455 5.692-4.521 5.96-4.71-.024.068-1.524 1.9-2.981 4.14a116.928 116.928 0 00-4.03 6.767c-.24.513.869 1.461 1.53 1.591.587-.522 3.669-6.127 4.059-6.769 2.107.47 8.335-1.058 11.293-4.767.064.041.71.197.674.244-.198.793-.26.765-.422 1.63-.29 1.702 1.516 2.344 2.207 2.333 2.999-.051 9.806-4.406 10.285-4.695-.283.403-3.036 5.516-3.243 6.025-.041.102.144.398.237.403.592.03 1.514.13 2.047.042a.883.883 0 00.825-.564c.103-.329 1.731-3.933 2.297-4.89.64-1.176 2.534-3.659 2.534-3.659s.872.25 1.942.482c1.07.232 3.086.316 4.122.037.448-.121 3.965-1.737 3.601-2.142m-29.79 4.656c-.872.838-5.996 3.48-7.66 3.35.759-1.182 2.926-3.704 3.919-4.675 1.031-1.348 2.792-1.593 3.877-1.593 2.313 0 .736 2.078-.136 2.918m6.94-.962c.247-1.265 1.874-3.474 2.339-3.877 1.411-1.38 3.32-.986 3.498-.809 1.366 1.979-4.368 5.092-5.837 4.686M125.1 21.455c.743-1.257 1.348-2.554.636-3.075-.74-.715-4.984 1.635-6.751 3.23-3.06 2.762-5.15 5.896-6.429 8.008-.492.82-2.24 3.555-2.648 4.03-.374.436-2.615 2.548-3.107 2.287-1.07-.714.574-3.852 1.47-5.309.559-.875.874-1.599.449-2.08-.247-.32-.608-.54-1.165-.32-.293.117-4.605 6.262-5.237 6.196-.633-.065.36-3.508 1.349-5.069.42-.731 1.96-2.892 1.563-3.323-.378-.37-.755-1.137-1.225-.64-.279.352-2.116 2.77-2.862 3.824-.498.701-3.03 3.9-3.69 4.54-.66.64-2.202 2.188-2.635 1.915-.24-.134 1.496-2.602 1.792-3.137.354-.642 2.464-3.708 2.528-4.324.064-.615.014-1.207-.59-1.571-.29-.175-.526-.045-.701.242-.183.285-.578.721-1.081 1.47-.855 1.272-2.285 3.25-3.46 4.283-.767.673-3.743 3.325-5.159 3.797-.493.178-1.65-.149-1.251-.929.807-1.503 4.236-6.024 5.209-6.797.973-.773 1.624-1.34 2.605-1.62.438-.124.794.078 1.011.414.193.3.242.468.007.84-.117.288.037.398.404.216.808-.974.587-1.98.012-2.404-.575-.424-.603-.375-1.216-.503-.468-.098-2.993.634-5.17 2.644a55.876 55.876 0 00-2.69 2.965c-1.274 1.478-2.393 3.624-2.566 4.54-.304 1.926.657 2.384 1.35 2.645.702.196 1.372.261 1.89.016 1.308-.604 4.587-3.553 5.208-4.13.038.038-.402 1.679-.366 2.647.037.969.034 1.402.83 1.51.628.048.55 0 1.033-.205 1.067-.47 4.113-3.804 5.183-4.862-.302.568-.298 1.996-.144 2.608.22.868.794 1.145 1.442 1.112.568-.028 1.49-.584 1.938-.937.78-.615 1.54-1.75 1.788-2.01-.224.601-.3 2.584-.164 2.952.219.597.915.74 1.535.798 1.01.112 3.53-2.298 3.898-2.623.019.446.057 1.82.414 2.286.607.922 1.288 1.21 2.368.999.66-.13 1.283-.547 1.84-.93.634-.434 3.39-2.54 3.76-3.087.065-.097-.28-.41-.374-.355a3.482 3.482 0 00-.568.444c-.248.23-3.075 1.968-4.11 2.28-.42.127-.762-.132-.738-.413.063-1.442.963-3.657 1.47-4.523.402-.686.453-1.061 1.187-1.845.883-.421 3.536-2.013 5.314-3.603 1.262-1.03 3.87-3.858 4.613-5.114m-1.11-.675c-.374 1.654-6.417 7.27-8.373 8.202.994-1.326 1.918-2.58 3.04-3.773 2.161-2.294 5.448-4.764 5.12-4.625.22-.057.265.06.213.196m-19.798-1.804c.01-.932.439-1.156-1.008-2.271-1.184-.842-3.433-1.738-7.666-1.699-3.628.033-8.833.7-13.383 2.743-1.415.636-5.983 2.753-9.235 4.775-.407.308-.91.699-.66 1.108.32.526.72.22 1.665-.193 1.067-.483 6.591-2.632 8.17-3.316 2.589-1.12 6.416-1.99 8.049-2.308 1.364-.267 6.069-.846 7.848-.62 2.055.26 4.316 1.048 4.988 1.702.047.046.12.146.111.154-.317.265-2.016.995-4.227 2.002-2.21 1.007-14.399 5.345-14.869 5.616-.47.27-.913.24-.757.88.086.35.595.225.844.199 1.329-.141 5.376-1.736 7.913-2.379 2.536-.643 6.535-2.26 8.06-2.972 1.061-.496 4.37-2.326 4.157-3.42M75.056 32.295c-1.012 1.638-2.103 4.23-2.065 5.11.038.88.169 1.26.709 1.403.219-.142.43-.714.589-1.264.16-.55 1.02-2.161 2.274-3.97 1.253-1.81 2.58-3.474 3.88-5.204.274-.365 2.277-2.744 3.009-3.562.74-.827 1.49-1.65 2.297-2.423.276-.264.186-.428.114-.692-.117-.433-.2-.617-.495-.896-.426-.405-1.047-.388-1.465.013-.304.29-.55.629-.841.93-.634.652-4.574 5.436-5.131 6.277-.393.592-1.864 2.64-2.875 4.278" fill="#EEECE4"/><path d="M.03 15.137a3.492 3.492 0 000 .695c.71 8.91 1.459 19.005 3.613 28.973.085.732 1.061 2.13 1.643 2.632 5.93 5 13.253 9.229 19.77 12.055a4.904 4.904 0 003.802 0c6.75-2.82 14.355-7.084 20.413-12.12.568-.496 1.531-1.896 1.608-2.633 1.876-9.95 2.436-20 3.012-28.973.012-.13.017-.26.013-.39a4.224 4.224 0 00-.772-2.268 2.905 2.905 0 00-.597-.616C45.85 7.305 36.402 3.018 28.938.316c-.868-.41-3.086-.41-3.954 0C17.51 3.013 8.058 7.313 1.374 12.503c-.178.133-.34.288-.48.46a4.167 4.167 0 00-.862 2.174" fill="#EEECE4" fill-rule="nonzero"/><path d="M17.462 24.176a1.973 1.973 0 000 .313c.265 4.019.53 8.572 1.284 13.066.1.434.3.84.584 1.184a29.325 29.325 0 007.026 5.437c.42.23.93.23 1.35 0a29.223 29.223 0 007.255-5.465c.28-.346.476-.752.573-1.185.666-4.487.865-9.02 1.062-13.068a1.65 1.65 0 000-.176 2.251 2.251 0 00-.266-1.024 1.236 1.236 0 00-.214-.263c-2.389-2.34-5.732-4.277-8.385-5.492a1.845 1.845 0 00-1.404 0c-2.653 1.215-6.015 3.158-8.39 5.497a1.128 1.128 0 00-.17.208 2.19 2.19 0 00-.308.981" fill="#F0D0AD" fill-rule="nonzero"/><path d="M50.8 14.587a2.985 2.985 0 00-.619-.632c-2.388-1.858-9.263-6.65-21.275-10.987-.891-.42-2.985-.426-3.85-.013C13 7.313 6.13 12.113 3.733 13.955a2.829 2.829 0 00-.498.477 4.149 4.149 0 00-.85 2.168c-.023.23-.023.462 0 .692l.077.976c.613 7.73 1.311 16.477 3.169 25.071.09.79 1.037 2.106 1.607 2.606 4.901 4.126 11.41 8.094 17.855 10.89 1.187.5 2.528.5 3.715 0 6.73-2.814 13.453-6.806 18.45-10.956.562-.49 1.49-1.821 1.57-2.576 1.592-8.421 2.123-17.016 2.616-24.595l.096-1.48a3.132 3.132 0 000-.396 4.188 4.188 0 00-.767-2.248m0 2.277a2.54 2.54 0 010 .31l-.096 1.492c-.48 7.56-1.026 16.126-2.61 24.532-.062.55-.863 1.718-1.311 2.105-4.933 4.1-11.588 8.05-18.256 10.837a4.032 4.032 0 01-3.102 0C19.014 53.37 12.574 49.445 7.73 45.366c-.459-.392-1.281-1.58-1.348-2.148-1.857-8.568-2.547-17.305-3.16-25l-.077-.981a2.714 2.714 0 010-.55c.06-.637.3-1.243.693-1.75.108-.131.232-.249.369-.35 2.366-1.842 9.162-6.58 21.145-10.908a4.278 4.278 0 011.592-.237 4.491 4.491 0 011.663.263c11.94 4.313 18.736 9.05 21.103 10.887.177.133.334.29.464.469.382.541.598 1.181.621 1.842" fill="#000" fill-rule="nonzero"/><path d="M32.2 28.829c-1.174.121-2.389.526-2.72.455h-.038c-.427-.168-.756-.379-.589-.505.212-.174 2.057-.566 3.025-.584.22-.019 1.876.34 2.476.71.069.042.18.124.098.137-.082.013-1.197-.31-2.256-.203m1.154 1.958a4.275 4.275 0 00-2.974-.526 2.59 2.59 0 00-.907.71.02.02 0 000 .027c.007.008.017.01.026.005.258-.132.524-.249.796-.35 0 .443.363.803.81.803a.806.806 0 00.809-.855c.485.026.965.105 1.433.234.02 0 .04-.024.018-.037m-11.632-1.979c1.173.121 2.388.526 2.72.455h.037c.427-.168.756-.379.589-.505-.213-.174-2.057-.566-3.025-.584-.22-.019-1.876.34-2.476.71-.069.042-.18.124-.098.137.082.013 1.197-.31 2.255-.203m-1.151 1.958a4.275 4.275 0 012.974-.526c.353.166.663.409.908.71a.02.02 0 010 .027.021.021 0 01-.027.005 7.317 7.317 0 00-.796-.35.806.806 0 01-.81.803.806.806 0 01-.808-.855 6.799 6.799 0 00-1.433.234c-.024 0-.04-.024-.019-.037" fill="#513E2F" fill-rule="nonzero"/><path d="M33.961 15.168a.152.152 0 00-.166.013.15.15 0 00-.054.156c.064.314.049.638-.045.945a.152.152 0 01-.265.063 11.205 11.205 0 00-7.337-3.158.151.151 0 00-.158.088.15.15 0 00.04.175c.095.099.177.207.248.324a.149.149 0 01-.016.17.152.152 0 01-.165.045c-2.433-.839-4.033-.742-4.596-.663a.151.151 0 00-.114.084.149.149 0 00.006.14c.51.881.598 1.943.236 2.895a.151.151 0 01-.295-.037 2.39 2.39 0 00-.578-1.39.152.152 0 00-.176-.04.15.15 0 00-.09.156 3.164 3.164 0 01-.846 2.253c-1.244 1.168-1.666 2.105-1.81 2.618a.151.151 0 01-.27.003 2.962 2.962 0 01-.117-.297.151.151 0 00-.284 0c-1.096 2.578-.377 7.134-.178 8.697.064.505.863 6.579 1.078 8.434.14 1.23.552 3.971.99 4.621.642.953 2.984 2.853 4.163 3.858 1.178 1.005 1.703.74 3.9.74s2.823.463 4.055-.595c1.23-1.058 3.12-2.171 3.98-3.969.57-1.197 1.499-8.736 1.658-10.094.066-.427.122-.992.122-.992 1.857-11.58-1.733-14.593-2.919-15.264m-6.85 27.01c-2.238 0-4.05-1.454-4.05-2.433 0-.863 1.406-.921 3.27-1.08.264-.02 1.225-.026 1.44 0 1.924.138 3.391.209 3.391 1.09 0 .98-1.812 2.437-4.052 2.437m7.96-5.829c-.459.79-2.18 2.066-2.945 2.066-.764 0-.735-.353-1.512-.921-1.231-.9-1.82-.132-3.559-.132-1.738 0-2.327-.768-3.558.132-.777.568-.748.92-1.512.92s-2.63-1.454-2.945-2.065c-.266-.476-.868-3.6-1.115-5.179-.223-1.881-.286-3.158.151-4.21.547-1.316 1.404-1.21 1.308-1.908-.095-.698-1.114-2.106.157-2.187 1.271-.082 5.893 2.876 9.497 2.818 3.603-.058 3.683-1.365 4.36-2.07.676-.706 3.207 2.291 2.918 5.223-.597 6.116-.886 6.903-1.25 7.526" fill="#513E2F" fill-rule="nonzero"/><path d="M24.456 39.55a.09.09 0 00-.1.018.089.089 0 00-.019.1c.194.414.836 1.332 2.685 1.332 1.85 0 2.635-.908 2.903-1.316a.089.089 0 00-.009-.102.09.09 0 00-.1-.027 7.662 7.662 0 01-2.794.542 5.908 5.908 0 01-2.566-.526m2.627-7.442a.03.03 0 00-.029-.029.03.03 0 00-.03.029c-.23.637-1.297 3.621-1.236 3.947.054.29 1.043.4 1.473.437a.058.058 0 00.06-.035.058.058 0 00-.017-.067c-.247-.193-.73-.44-.73-.898 0-.568.51-3.379.51-3.379" fill="#513E2F"/></g></svg>